<?xml version="1.0" encoding="utf-8"?>
<!-- Generator: Adobe Illustrator 27.0.0, SVG Export Plug-In . SVG Version: 6.00 Build 0)  -->
<svg version="1.1" id="Layer_1" xmlns="http://www.w3.org/2000/svg" xmlns:xlink="http://www.w3.org/1999/xlink" x="0px" y="0px"
	 viewBox="0 0 3200 2000" style="enable-background:new 0 0 3200 2000;" xml:space="preserve">
<style type="text/css">
	.st0{fill:#DC0018;}
	.st1{fill:#E5E5E5;}
	.st2{fill:#FFFFFF;}
	.st3{fill:#231F20;}
</style>
<g>
	<path class="st0" d="M2379,666.1l115.3-23.4l52-11.8c1.6-0.4,3.2,0.2,4.3,1.4l5.2,5.7l7.3-0.2c2.1,0,3.9,1.3,4.4,3.3l4,15.1
		l3.9,3.3l5.5,0.3c1,0.1,1.9,0.4,2.6,1.1l2.6,2.2l9.1,4.4l9.9,2.9l12,2.6c0.5,0.1,0.9,0.3,1.4,0.5l2.5,1.5c-0.3-1-0.2-2.2,0.3-3.2
		l2.6-5.1v-20.2l-3.8-19.1l-2.2-9.4c0-0.1-0.1-0.2-0.1-0.3l-2.2-14.8c0-0.3-0.1-0.6,0-0.8l1.3-29.1c0-0.1,0-0.2,0-0.3l1.4-12.7
		l-7.5-26.8l-7.6-3.4c-2-0.9-3.1-3.1-2.5-5.3l1.8-6.4l-1.5-4l-6.8-11.9c-0.6-1-0.7-2.2-0.5-3.3l2.4-9.5l-2-12.6l-6.3-17
		c-0.1-0.4-0.2-0.7-0.3-1.1l-0.9-8.2l-15.2,4.2l-12.1,3.9c-0.5,0.2-1,0.2-1.6,0.2l-8.1-0.4l-13.8,3.3l-7.4,3l-5.6,4.3l-5.2,6
		l-7.2,9.7l-7.6,11.8l-3.8,7.6c-0.1,0.3-0.3,0.6-0.5,0.8l-1.7,2.2c-0.1,0.2-0.3,0.3-0.4,0.5l-14.1,13.3l0.2,3.6l0.7,1l2.8,1.3h3.8
		c2.5,0,4.4,2,4.4,4.4v3.9c0,0.7-0.2,1.5-0.5,2.1l-2.3,4.2l0.3,1.4l3.4,4.9c0.6,0.8,0.8,1.8,0.8,2.8l-0.4,6.1
		c-0.1,1.5-0.9,2.8-2.2,3.5l-5.2,3c-0.7,0.4-1.4,0.6-2.2,0.6h-3.6l-2.7,3.3l-4.6,8.3c-0.3,0.5-0.6,0.9-1,1.2l-5.6,4.8
		c-0.7,0.6-1.5,0.9-2.5,1l-13.2,1.2l-6,2.6l-5.4,3.3c-0.8,0.5-1.8,0.7-2.8,0.6l-4.3-0.4c-0.7-0.1-1.4-0.3-2-0.7l-4-2.7l-15.3,0.4
		l-8.1,1.2l-10.5,3.4l-11.2,3.7l-4.4,2.7l3.3,10.4l1.8,0.2c1.6,0.1,3.1,1.2,3.7,2.7l3.5,8.2c0.1,0.3,0.2,0.6,0.3,1l0.4,2.6
		c0.2,1.5-0.3,3.1-1.5,4.1l-2.7,2.3l-4.9,6.4l-1.1,3.6c-0.2,0.8-0.7,1.5-1.3,2l-5.2,4.8c-0.2,0.2-0.4,0.3-0.6,0.5l-3.9,2.5l-2.1,3.4
		c-0.2,0.4-0.5,0.8-0.9,1.1l-3.5,3c-0.1,0.1-0.1,0.1-0.2,0.1l-1.9,1.5l1.2,10.3L2379,666.1z"/>
</g>
<g>
	<g>
		<polygon class="st1" points="1018.8,1685.8 1013.2,1676.2 997.5,1684.1 995.8,1688.9 1005.8,1703.6 1012.3,1702.7 1015.3,1701.4 
			1019.2,1704.9 1029.2,1704.5 1031.8,1700.6 1024,1695.8 		"/>
	</g>
	<g>
		<polygon class="st1" points="891.1,1662.3 885.9,1671.9 892.4,1671.9 898.1,1663.7 897.2,1661.5 		"/>
	</g>
	<g>
		<polygon class="st1" points="926.7,1647.1 915.9,1651.9 913.3,1661.9 929.8,1668.9 935.4,1668 939.8,1657.6 938,1648.5 		"/>
	</g>
	<g>
		<polygon class="st1" points="1064.4,1723.2 1064.4,1726.6 1069.6,1737 1077.9,1734 1078.7,1729.7 1074.4,1724 		"/>
	</g>
	<g>
		<polygon class="st1" points="1076.6,1717.9 1083.5,1714 1084.4,1710.6 1067.9,1708.8 1066.1,1710.1 1053.5,1707.5 1050.1,1712.7 
			1064.8,1717.1 		"/>
	</g>
	<g>
		<polygon class="st1" points="1175.1,1787.9 1170.8,1781.4 1161.7,1775.7 1141.3,1766.2 1132.2,1761.8 1127.8,1765.3 
			1128.7,1770.9 1133,1775.7 1131.7,1778.3 1126.1,1786.6 1120,1789.2 1120.4,1796.1 1126.1,1800.9 1130.4,1816.1 1128.7,1822.6 
			1129.5,1834.8 1139.1,1841.7 1143.9,1842.2 1150,1834.3 1156.5,1825.7 1164.7,1820.9 1168.6,1822.6 1179.9,1818.7 1190.3,1810 
			1191.2,1806.5 1180.4,1799.6 		"/>
	</g>
	<g>
		<polygon class="st1" points="1125.2,1732.7 1113.5,1725.3 1101.8,1722.3 1089.2,1715.8 1083.1,1723.6 1096.1,1741.4 
			1102.6,1745.3 1115.6,1742.7 1125.2,1737.9 		"/>
	</g>
	<g>
		<polygon class="st1" points="311.8,1810 312.6,1814.4 307.4,1819.6 302.2,1818.3 300.9,1813.9 294,1813 284.8,1815.7 
			275.7,1821.7 278.8,1823.5 283.1,1822.6 294.8,1818.7 304.8,1821.7 312.2,1823 323.9,1820 327,1815.2 319.1,1808.3 		"/>
	</g>
	<g>
		<polygon class="st1" points="478.5,1812.6 482.4,1817.4 485,1814.4 482.9,1809.2 		"/>
	</g>
	<g>
		<polygon class="st1" points="415.1,1817.8 421.6,1817.8 423.8,1812.6 418.2,1811.8 		"/>
	</g>
	<g>
		<polygon class="st1" points="413.4,1807 407.3,1809.6 411.6,1814.8 417.3,1810.5 		"/>
	</g>
	<g>
		<polygon class="st1" points="318.7,1636.7 315.7,1632.4 312.6,1625.4 310,1625.4 310,1630.6 315.7,1638.9 		"/>
	</g>
	<g>
		<polygon class="st1" points="363,1574.6 367.8,1578.5 372.6,1589.4 380.4,1590.3 380.8,1587.7 375.2,1573.3 367.8,1571.6 
			363.9,1567.7 360.8,1561.2 356.1,1567.7 356.5,1574.6 		"/>
	</g>
	<g>
		<polygon class="st1" points="368.2,1663.2 368.7,1670.6 377.8,1680.2 386,1680.6 390.4,1670.6 388.2,1668 378.2,1665.4 		"/>
	</g>
	<g>
		<polygon class="st1" points="614.9,1719.7 615.8,1725.8 622.3,1721.8 619.7,1717.1 		"/>
	</g>
	<g>
		<polygon class="st1" points="538.5,1753.6 531.1,1758.8 518.5,1768.3 505.5,1776.1 502,1779.2 505,1794.8 512.8,1797 
			526.3,1789.2 538,1782.2 533.7,1775.7 535,1769.2 529.4,1772.7 521.5,1770.5 525.9,1767.4 531.1,1769.6 541.5,1764.9 
			542.8,1760.9 536.3,1758.8 		"/>
	</g>
	<g>
		<path class="st1" d="M833.8,1817.4l-13.9-5.7l-13.5-4.8l-3.9-10l-6.1-7.4l-7.4-10.4l-9.1-16.1l-10.4-4.8l-3-6.5l-5.2-3l-1.7-7.8
			l-8.2-5.6l-5.2,3.9l-3,0.4l-3.9,4.3l-0.9,8.2l-1.7,0.4l-9.1,5.2l-1.3-7l-18.7-18.2l-0.4-7.8h-7l-3.9,3l-8.2-0.4l-4.3-2.6
			l0.9-229.3l-11.7-7.8l-13-5.2l-5.2,2.2l-5.6,1.7l-13.9-7l-3.9,2.6l-16.9-11.3l-19.1-1.7l-5.2-3.9l-0.9-10l-10.4-0.9l-4.3,4.3
			l-1.7-3l1.3-3l-5.2-5.7l-9.5-6.5h-3l-7.4,8.2l-12.2,0.4l-2.6-2.2l-3,0.4l-10,5.6l-7.4,1.7l-4.4-2.6l-10,6.5l-3,8.2l-10,9.6
			l-11.3,0.4l-4.8-1.7h-8.7l-7.8,5.2l6.5,11.3l7.8,12.6l2.2,10.4l-1.3,4.4l1.3,3l9.1,5.2l-2.6,2.2l2.6,8.7l6.1,11.7l-4.8,2.6
			l-13.5-4.8l-7.4-4.3l1.3-3.9l3.9-5.7l-3.9-3l-7-0.9l-10.4,1.7l0.4,4.3H442l-2.6-2.6h-5.7l-18.2,1.3l-1.3,2.2l5.2,10l5.7,4.8
			l-1.7,6.5l-1.3,10.4l9.5,10l13.5,0.4l9.6,4.8l5.2,1.3l8.7-2.2l7-2.2l3,5.2c0,0-0.9,1.3-2.6,2.6c-1.7,1.3-2.6,9.1-2.6,9.1
			l-2.2,11.7l-6.1,3.5h-4.3l-2.6-1.7l-4.3-1.7l-8.7,6.5l-6.5,0.9l-0.9-6.5l-7-3l-7.4,3.5l-5.2,10l-7,4.4l-12.2,8.7l-2.6,13.5l3,7.4
			l3.5-1.3l2.2,1.3l-3,3l-0.4,5.6l-5.6,2.2v2.6l5.6,9.5l1.7,10.4l3.9,3.5h16.5l2.2-3.9l2.6,2.6v11.7l1.7,4.8l-3.5,0.4l-3.9,2.6
			l1.7,5.2l-1.3,7l-3.9,3.9l7,0.9l5.6-3l10.9-0.4l0.9,5.2l3,1.3l3.5-3.5l3.9,15.6l3.9,0.4l0.4-7.8l2.6-2.6l3.5,0.9l1.7,6.5l9.1-1.7
			l4.4-3.5l-0.9,7l-4.4,3.9l-6.1,12.2l-5.2,10l-10.8,3.9l-3.5,10h-2.2l-1.7-1.3l-3.5,0.9l-9.1,1.7l-8.2,2.6l-6.1,7.4l-2.6,0.9
			l-4.3-3.5l-7.4-0.4l-4.8,2.2l-7.8,1.7l-5.7,5.6l-11.7,4.4l-16.9-1.7l-8.2,3.5v5.2l4.3,3l2.6-2.6l6.1-1.7l7,3l5.6,0.9l4.4-2.2
			l5.6-3.5h8.7l7.8-5.2l9.1,3.5l7.8-2.6l9.6-3.5l-0.9,6.5h2.6l2.2-6.1l8.7-0.4l7.4,2.6l1.3-3l3.9-3.9l-4.8-3.5l14.3-6.1l14.3-3
			l5.7-3l20.8-11.3l17.4-11.3l7.4-8.7l-2.2-5.7l-6.1-2.6l0.9-4.3l8.2-7l11.3-3.9l3-6.1l4.8-7l6.5-9.1l13.5-7.4l10,0.9l3.5,6.9h-7.4
			l-2.6-3.5l-11.7,6.1l-0.4,2.2v4.8l-6.1,10.4l-2.6,6.5l6.1,1.7v3.5l-10,1.7l1.3,5.7l12.6,0.4l9.1-5.6l4.8-5.7l8.2-5.6l7.4,4.8
			l3.5-3l3.5,2.2l1.3,5.2l3.5,0.9l10.4-11.7l-1.7-4.3l-8.7,7.4l3.9-11.7l-2.6-0.9l-3,7.8l-1.3-12.2l9.5-3.9l9.6-0.9l7.4,15.6
			l5.7,0.9l17.4,10.4l1.7-1.3h14.8l15.2,6.5l10,3l7.8-3l4.8-4.3v4.3l-3.5,8.7l10.9,7l13,7l7,7.8l9.1,6.5l6.9-1.7l1.3,0.9l-5.7,3.5
			v6.1l4.3,3l4.4,7.8l1.7,10l5.7,1.3l9.5,16.1l3.9,3.5v-3l-0.9-15.2l2.2,1.3l1.7,10l2.6,10l3-1.3l2.2-9.1h2.2v13.5l3.9,3.9l-4.8,5.2
			c0,0,1.7,3,3.5,3.9c1.7,0.9,2.6-2.6,2.6-2.6l2.6,6.1c0,0,4.3,7.4,5.7,9.1c1.3,1.7,3.5,2.6,3.5,2.6l2.2-2.2l-3.5-4.8l-1.3-4.4
			l5.7,3.5l5.2,5.2l3-1.3l-0.4-10l-3.9-7.4l2.2-2.2l4.8,3l7.4,3.9l3.9,8.2l4.3,2.2l4.8-6.1l2.6-9.1l-1.3-8.3L833.8,1817.4z"/>
	</g>
	<g>
		<path class="st1" d="M2458.5,1669.6l3.9-1.6l3.2-3.6c0.8-0.9,1.9-1.4,3.1-1.5l9.5-0.4l6.6-3.1l5.3-6.2l-0.7-3
			c-0.1-0.2-0.1-0.3-0.1-0.5l-0.9-6.5c-0.1-0.7,0-1.3,0.2-2l1.4-4.2l-0.7-4.1c-0.3-1.9,0.6-3.8,2.3-4.6l4.4-2.4l0.5-5.7l-1.4-3.8
			c-0.2-0.4-0.2-0.9-0.3-1.3l-1.3-31.9l-3.3-19.4l-11.8-21.4l-9.5-15.6c-0.1-0.1-0.1-0.2-0.2-0.4l-6.6-13.7l-7.3-7.3
			c-0.4-0.4-0.8-1-1-1.5l-7.8-20c-0.5-1.3-0.4-2.8,0.4-4l2.2-3.5c0.1-0.2,0.3-0.4,0.4-0.6l1-1.1l-2.5-4.5l-10.3-9.5
			c-0.1-0.1-0.2-0.2-0.3-0.3l-13-14.8c-0.2-0.2-0.4-0.4-0.5-0.7l-10-16.9l-14.4-25.2c-0.1-0.2-0.2-0.4-0.3-0.6l-10-26.2
			c0-0.1-0.1-0.2-0.1-0.3l-5.2-16.7l-10.8-0.7l-10.3-0.9l2.8,7.9c0.2,0.6,0.3,1.2,0.2,1.8l-0.9,12.9c-0.1,1.3-0.7,2.5-1.8,3.2
			c-1,0.8-2.3,1.1-3.6,0.8l-10.3-2.2c-2-0.4-3.4-2.1-3.5-4.1l-0.2-3.6l-7.8,0l-14.3,1.8c-0.1,0-0.2,0-0.3,0l-86.9,5.2
			c-0.2,0-0.4,0-0.5,0l-21.8-1.4c-1.1-0.1-2.1-0.5-2.9-1.3l-3.9-3.9c-0.2-0.2-0.4-0.4-0.6-0.7l-5.7-8.6l-12.1-0.6l-17.9,1.7
			l-68.5,7.8l-23.8,3l-0.3,2.6l3.1,3.1l6.7,5c1.1,0.8,1.7,2.1,1.8,3.4l0.5,16.5l3.9-0.7l15.7-5.5c0.4-0.1,0.7-0.2,1.1-0.2l15.9-1.3
			l11.6-1.7c0.6-0.1,1.1-0.1,1.7,0.1l20.4,4.8c0.3,0.1,0.6,0.2,0.9,0.3l21.7,10.4c0.4,0.2,0.7,0.4,1,0.7l3.8,3.4l7.1,2.7
			c0.7,0.3,1.3,0.7,1.8,1.3l4.4,5.2c0.6,0.7,0.9,1.5,1,2.3l0.2,1.6l3.3-1.3c0.5-0.2,1.1-0.3,1.7-0.3h9.3l8.1-4.4l9.6-9.2
			c0.9-0.8,2.1-1.3,3.3-1.2l2.8,0.1c-0.1-0.4-0.1-0.9-0.1-1.3l0.4-5.2c0.2-2,1.6-3.6,3.6-4l10.9-2.2c0.3-0.1,0.6-0.1,0.9-0.1h7
			c0.7,0,1.4,0.2,2,0.5l7.6,3.8l11,3.8c0.9,0.3,1.7,0.9,2.3,1.8l5.7,8.7l6,2.1c1.3,0.5,2.3,1.5,2.7,2.8l2.4,7.3l7.4,3.5
			c0.8,0.4,1.4,0.9,1.8,1.7l3.5,5.6l3.5,1.2l13.7,3.4c1.4,0.3,2.5,1.3,3,2.6l3.2,7.6l7.8,9.5c0.7,0.8,1,1.8,1,2.8v25.6
			c0,0.4-0.1,0.9-0.2,1.3l-3.6,11.7l0.7,6.1l0.7,2.7l4.1-1.7c0.8-0.3,1.7-0.4,2.6-0.2l12.2,2.6c1.9,0.4,3.3,2,3.5,3.9l0.4,4.3
			c0.1,0.9-0.1,1.9-0.6,2.7l-8.7,14.8c-0.1,0.2-0.3,0.5-0.5,0.7l-3,3.5l6.8,7.1c0.1,0.1,0.1,0.1,0.2,0.2l7,8.2
			c0.2,0.2,0.4,0.5,0.5,0.7l7.7,14.1l7.6,10.2c0.2,0.3,0.4,0.6,0.6,0.9l4.6,11l2.5-3.3c1.4-1.8,4-2.3,5.9-1l4.8,3
			c0.5,0.4,1,0.8,1.4,1.4l7,10.8c0.3,0.5,0.5,1,0.6,1.6l1.6,8.6l4.2,6c0.7-0.4,1.5-0.5,2.3-0.5l10.4,0.9c0.7,0.1,1.4,0.3,2,0.7
			l9.5,6.1c0.5,0.3,1,0.8,1.3,1.3l9.1,13.9c0.3,0.4,0.5,0.9,0.6,1.4l2.2,9.1c0.1,0.2,0.1,0.4,0.1,0.6l0.7,6.1l1.1,1L2458.5,1669.6z"
			/>
	</g>
	<g>
		<polygon class="st1" points="2444.3,1695.4 2440.8,1694.1 2434.5,1698.4 2430.6,1704.7 2427.1,1705.4 2420.6,1707.1 2423,1709.5 
			2429.3,1706.2 2440.6,1702.3 2449.9,1699.1 2448.8,1696.2 		"/>
	</g>
	<g>
		<polygon class="st1" points="2497,1646.5 2493.1,1658.9 2484.4,1673 2472.7,1684.3 2463.6,1689.5 2456.9,1693.6 2460.1,1696.4 
			2467.5,1690.8 2481.8,1679.5 2491.8,1669.1 2498.5,1651.3 2501.2,1646.7 2501.6,1637.6 2499.6,1638.9 		"/>
	</g>
	<g>
		<path class="st1" d="M2269.7,1122.6l-4.4,1.9l-1,2.3l0.4,2.1l2.1,2.1l9.2,5.5l7.8-0.4c1.6-0.1,3.1,0.7,3.9,2l9.1,13.9
			c0.2,0.3,0.4,0.7,0.5,1l1,3.1l6,7.2c0.4,0.4,0.6,0.9,0.8,1.4l0.6,1.9l10.2,4c0.4,0.1,0.7,0.3,1,0.6l8.3,6.1
			c0.3,0.2,0.6,0.5,0.9,0.9l5.5,7.1l5.3,3c0.3,0.2,0.6,0.4,0.8,0.6l5.6,5.2c0.4,0.4,0.7,0.8,1,1.3l3.1,6.2l4.5,4.2l10.7,4.9
			c1,0.4,1.7,1.2,2.2,2.2l7.4,16.1c0.1,0.1,0.1,0.3,0.2,0.4l3.6,10.7l4.6,1.1c0.7,0.2,1.4,0.6,2,1.1l6.1,5.6
			c0.5,0.5,0.9,1.1,1.1,1.7l3.5,9.6c0,0.1,0.1,0.1,0.1,0.2l1.2,3.8l3.2,1.6l2.6-1.4l5-3.1l11.3-12.4l-1.9-6.3
			c-0.4-1.3-0.2-2.7,0.6-3.8c0.8-1.1,2-1.8,3.4-1.9l6.2-0.3l8.4-8c0.3-0.3,0.7-0.6,1.1-0.8l3.3-1.7l5.4-8.1c0.2-0.2,0.3-0.5,0.6-0.7
			l7-7l5.4-9.1c0.6-1,1.5-1.7,2.7-2l4.4-1.2l2.2-5.4c0.4-1,1.2-1.8,2.1-2.3l2.1-1l1.1-14.4c0-0.5,0.1-1,0.3-1.4l7-16.5
			c0.2-0.5,0.6-1,0.9-1.4l11.1-11.2l-23.1-18.5l-33.1-19.9l-6.4-1.8l-44.7,5.1c-1.8,0.2-3.6-0.8-4.5-2.4l-3.9-7.9l-4.1-3.5
			l-42.4,1.2l-18.6,2.1l-23.6,11.8c-0.1,0.1-0.2,0.1-0.2,0.1l-13.3,5.6l0.3,2.2C2272.6,1119.8,2271.6,1121.8,2269.7,1122.6z"/>
	</g>
	<g>
		<path class="st1" d="M2255.1,1119.5l-7.3,1.2c-0.1,0-0.1,0-0.2,0l-18.7,2.2c-0.1,0-0.1,0-0.2,0l-18,1.3l-12.8,2.1l-22.7,3.1
			l-19.2,2v1.7l0.4,5.2l1.6,8.4l8.9,20.8c0.1,0.2,0.2,0.5,0.2,0.7l6.5,26.5l3.9,16.4l4.3,12.8c0.1,0.2,0.1,0.3,0.1,0.5l3.8,18.4
			l5.3,16l6.5,8.5c0.5,0.6,0.8,1.3,0.9,2.1l0.9,6.6l2.9,1.2c1.5,0.7,2.6,2.1,2.7,3.8l0.4,5.7c0.1,0.6,0,1.3-0.2,1.9l-4.6,12.6
			l-1.2,8.1l-0.4,4.1l4,10.8c0.2,0.4,0.2,0.8,0.3,1.3l0.9,14.3c0,0.6,0,1.1-0.2,1.7l-1.4,4l2.8,1.5c1.1,0.6,2,1.8,2.2,3.1l1.6,8.2
			l6.2,9.3l2.3,2.3l19.3,0.4l86.5-5.2l14.5-1.8c0.2,0,0.3,0,0.6,0l12.3,0.1c1.1,0,2.2,0.4,2.9,1.1l-3.2-9.1c-0.5-1.4-0.3-2.9,0.5-4
			l3-4.4c1-1.4,2.6-2.1,4.2-1.8l15.5,2.2l7.9,0.5l-1.4-11.6c-0.1-0.5,0-1,0.1-1.5l6.1-26.9c0-0.2,0.1-0.3,0.1-0.5l3.5-10.2l-1.1-5.8
			c-0.2-1,0-2,0.5-2.9l6.4-12c-0.6,0-1.4-0.2-2-0.5l-7-3.5c-1.1-0.5-1.9-1.5-2.3-2.7l-1.7-5.5l-3.1-8.4l-4.4-4.1l-5.8-1.5
			c-1.5-0.4-2.6-1.5-3.1-2.9l-4.3-12.8l-7.1-15.3l-9.8-4.5c-0.4-0.2-0.8-0.5-1.1-0.8l-5.7-5.2c-0.4-0.4-0.7-0.8-1-1.3l-3.1-6.2
			l-4.7-4.3l-5.6-3.2c-0.5-0.3-1-0.7-1.3-1.1l-5.7-7.3l-7.3-5.4l-11.6-4.6c-1.2-0.5-2.2-1.5-2.6-2.7l-1-3.1l-6-7.2
			c-0.4-0.4-0.6-0.9-0.8-1.4l-1.1-3.3l-7.4-10.6l-6.7,0.3c-1,0.1-2-0.3-2.8-0.9l-11.1-8.2c-0.2-0.1-0.4-0.3-0.5-0.4l-3.5-3.5
			c-0.6-0.6-1.1-1.5-1.2-2.3l-0.9-4.8c-0.2-0.9-0.1-1.7,0.3-2.5L2255.1,1119.5z"/>
	</g>
	<g>
		<path class="st1" d="M2072.7,1390c-0.2-0.1-0.3-0.3-0.5-0.4l-4.8-4.8c-0.9-0.9-1.3-2-1.3-3.3l0.2-10.1c0.1-2.2,1.7-4,3.9-4.3
			l28-3.8l68.7-7.8l18.3-1.7c0.1,0,0.3,0,0.4,0h9.3l-1.2-0.6c-0.5-0.3-0.9-0.7-1.3-1.1l-1.7-2.2c-0.9-1.2-1.2-2.8-0.7-4.2l1.9-5.7
			l-0.8-12.8l-4.1-11.1c-0.2-0.6-0.3-1.3-0.3-1.9l0.4-5.2c0-0.1,0-0.2,0-0.3l1.3-8.7c0.1-0.3,0.1-0.6,0.2-0.9l4.4-12.1l-0.2-2
			l-2.7-1.1c-1.5-0.6-2.5-1.9-2.7-3.5l-1.1-8l-6.2-8.2c-0.3-0.4-0.5-0.8-0.7-1.3l-5.6-16.9c-0.1-0.2-0.1-0.3-0.1-0.5l-3.8-18.4
			l-4.3-12.8c-0.1-0.1-0.1-0.2-0.1-0.4l-3.9-16.5l-6.4-26.1l-9-20.9c-0.1-0.3-0.2-0.6-0.3-0.9l-1.7-9.1c0-0.2-0.1-0.3-0.1-0.5
			l-0.4-5.7c0-0.2,0-0.4,0-0.6l0.1-0.7l-18.9,1.4l-74.6,6.9c-0.1,0-0.1,0-0.2,0l-16.7,0.8l-0.3,13.1l0.4,44.6l-2.2,83.5l-0.4,37.4
			l7.3,50l3.9,37h2.5l2-4.2l3.8-11.5c0.6-1.8,2.3-3,4.2-3c0.4,0,0.8,0.1,1.2,0.2l6.1,1.7c1.2,0.3,2.2,1.2,2.7,2.3l8.2,16.1
			c0.3,0.6,0.5,1.3,0.5,2v1.7l5.8-2.7l-1.2-16.2L2072.7,1390z"/>
	</g>
	<g>
		<path class="st1" d="M2603.2,992.1l-9.5-17.4c-0.1-0.2-0.2-0.4-0.3-0.6l-3.3-8.9l-10,2.3l-30.5,7.5l-53.2,11.2l-53.5,10.8
			c-0.1,0-0.1,0-0.2,0l-46,7l-42.5,5.2l-19.1,3.4c-0.5,0.1-1,0.1-1.5,0l-7-1.1v5.4c0,0.3,0,0.7-0.1,1l-1.3,5.6
			c-0.2,0.9-0.7,1.7-1.4,2.3l-7.1,6.3l-3.9,8.7c-0.8,1.8-2.7,2.8-4.7,2.6l-5.1-0.7l-3.1,1l-5.2,8.2c-1.1,1.7-3.1,2.4-5,1.9
			c-1-0.3-2.9-0.7-4-0.7c-1.3,0-2.6-0.4-3.6-1.1l-6.7,6.7l-1.5,7c-0.3,1.3-1.2,2.5-2.4,3.1l-11.2,5.4l-10.8,9.2
			c-0.4,0.3-0.8,0.6-1.3,0.8l-10,3.7l-9.3,6.1l-1.4,8.1c-0.3,1.8-1.6,3.2-3.4,3.6l-6.4,1.5l-2.6,2.1l-0.5,3.8l12.7-0.9l18.5-2.2
			l15.5-2.6l3.8-0.8l15.9-6.7l24.2-12.1c0.5-0.2,1-0.4,1.5-0.4l19.6-2.2c0.1,0,0.2,0,0.4,0l44.3-1.3c1,0,1.9,0.3,2.7,0.8l8,5.7
			c0.6,0.4,1.1,1,1.4,1.6l2.9,5.7l8.2-1.4c0.1,0,0.2,0,0.3,0l33.9-3.9c0.2,0,0.3,0,0.5,0c0.4,0,0.8,0.1,1.2,0.2l7.8,2.2
			c0.4,0.1,0.7,0.3,1.1,0.5l33.9,20.4c0.2,0.1,0.4,0.2,0.5,0.4l25,20.6l12.5-3.1c0.2,0,0.4-0.1,0.6-0.1l9.3-1l0.7-3.3
			c0-0.1,0.1-0.3,0.1-0.4l5.2-17.4c0.1-0.5,0.4-0.9,0.7-1.3l9.1-12.6c0.2-0.3,0.5-0.6,0.8-0.8l17.4-14.3c0.3-0.2,0.6-0.4,0.9-0.6
			l13.9-6.5c0.3-0.1,0.6-0.2,0.9-0.3l7.4-1.7c0.9-0.2,1.9-0.1,2.8,0.2l2.3,0.9l4.3-6.8c-0.9-0.5-1.7-1.3-2.1-2.3l-0.6-1.6h-8.3
			c-1.4,0-2.7-0.7-3.6-1.8c-0.8-1.1-1.1-2.6-0.7-3.9l4.5-14.7h-2.4c-2.5,0-4.4-2-4.4-4.4v-2l-0.7-3c-0.5-1.8,0.3-3.8,1.9-4.8
			c1.6-1,3.7-0.9,5.2,0.3l3.3,2.7l2.6,0.3l5.4,0.7l7.3-3.2l2.7-6l1.7-5.4c0.4-1.2,1.2-2.1,2.3-2.7l4.7-2.3l0.5-6.5l-0.3-0.3
			c-1.4-1.1-2-3-1.5-4.8c0.5-1.7,2.1-3,3.9-3.1l0.8-0.1l-5.4-5.4C2603.7,992.8,2603.4,992.4,2603.2,992.1z"/>
	</g>
	<g>
		<path class="st1" d="M2218.4,1088.5c0.2-1.2,0.9-2.3,2-3l11.3-7.4c0.3-0.2,0.6-0.3,0.9-0.4l9.7-3.6l10.7-9
			c0.3-0.2,0.6-0.4,0.9-0.6l9.8-4.7l1.8-7.4c0.2-0.9,0.7-1.7,1.4-2.2l11.6-10.4c0.5-0.5,1.2-0.8,1.9-1l1.7-0.4
			c1.3-0.3,2.7,0,3.8,0.8c0.7,0.6,1.3,1.4,1.5,2.2c0.4,0,0.7,0.1,1,0.2l4.4-6.9c0.6-0.9,1.4-1.5,2.4-1.9l5.7-1.7
			c0.6-0.2,1.3-0.2,1.9-0.1l2.8,0.4l3-6.5c0.2-0.4,0.5-0.9,0.8-1.2l5.4-5.7l0.8-1.2l0.2-3.7l-3,2.4c-0.8,0.6-1.7,0.9-2.7,1l-21,0.4
			l-31.9,5c-0.1,0-0.2,0-0.3,0l-26.4,2.3l-139.4,13.5l-54.7,6.2c-0.2,0-0.4,0-0.5,0l-5.9-0.1v6c0,2.3-1.8,4.3-4.2,4.4l-22.6,1.3
			l-18.5,1.7c-0.1,0-0.3,0-0.4,0l-25.6,0.1l-0.5,11.4c0,0.4-0.1,0.8-0.2,1.2l-8.4,24.9l-3.5,11.3l-0.8,6.6c-0.2,1.4-1,2.6-2.2,3.3
			l-7.4,4.2l2.4,5.9c0.4,0.8,0.4,1.8,0.2,2.6l-1.8,8.2l11.5-0.3l64.6-5.2h0.2l14.3-0.4l21.6-1.3l74.6-6.9l27.4-2.2l22.5-2.6l22.5-3
			l9.1-1.5l-0.2-8.2c0-1.4,0.6-2.7,1.6-3.6l4.8-3.9c0.5-0.4,1.1-0.7,1.8-0.9l4.5-1.1L2218.4,1088.5z"/>
	</g>
	<g>
		<path class="st1" d="M2714.3,604.5l-2.1-1.5l-9,2.4l3.3,11.5c0,0.1,0.1,0.3,0.1,0.4l2.2,11.7c0,0.1,0,0.2,0,0.3l0.7,5.8l1.9-0.6
			l5.3-4.2l2.6-4.2c0.9-1.5,2.6-2.2,4.3-2l2.1,0.3l2.3-1.2l-5-7.7L2714.3,604.5z"/>
	</g>
	<g>
		<path class="st1" d="M2695.1,619.8l-3.2-11.8l-61.4,13.4l0.9,4.6l3.9,19.5c0.1,0.3,0.1,0.6,0.1,0.9v21.7c0,0.7-0.2,1.4-0.5,2
			l-1.7,3.4l0.4,0.4l9.8-6.7l9.2-8.3l5.1-5.5c1.5-1.7,4.1-1.9,5.9-0.5l4.8-2.6c0.4-0.2,0.7-0.3,1.1-0.4l13.4-2.9l15.5-7.7l-1.2-8.1
			L2695.1,619.8z"/>
	</g>
	<g>
		<path class="st1" d="M2751.5,601.9l-10.3-15.8l-4.5-5.2h-1.3l-1.9,1.3c-2,1.4-4.7,1-6.1-0.9l-5.2-7c-0.8-1-1.1-2.4-0.8-3.6
			l0.9-3.9c0.1-0.3,0.2-0.6,0.3-0.9l5.5-11.7l-4.3-6.6l-5.4,2.4l-4.9,7.6c-0.6,0.9-1.5,1.5-2.5,1.8l-6.1,1.7c-0.1,0-0.1,0-0.2,0.1
			l-46.9,11.3c-0.1,0-0.1,0-0.2,0.1l-18.2,3.5l-10.5,1.8l-1.5,24.6l0.6,7.9l53.7-11.7l13.6-2.8l17.4-5c0.4-0.1,0.8-0.2,1.2-0.2
			c1,0,2.1,0.4,2.9,1.1l5.6,4.9c0.2,0.2,0.4,0.4,0.6,0.6l9.1,11.7c0.1,0.1,0.2,0.3,0.3,0.4l3.4,5.6c0-0.7,0.2-1.4,0.6-2l2.2-3.9
			c0.4-0.8,1.1-1.4,1.9-1.8l7.8-3.9c1.2-0.6,2.6-0.6,3.8-0.1c1.2,0.6,2.1,1.6,2.5,2.9l0.9,3.4l1.4-1.7c0.4-0.5,0.9-0.8,1.4-1.1
			l3.8-1.9l-7.2-1C2753.3,603.7,2752.2,603,2751.5,601.9z"/>
	</g>
	<g>
		<path class="st1" d="M2839.4,374.2l-3.4-3.7c0,0.1-0.1,0.2-0.1,0.3l-0.4,1.3c-0.6,1.8-2.3,3-4.2,3h-2.2c-1,0-2-0.3-2.7-0.9
			l-7.8-6.1c-1-0.8-1.7-2-1.7-3.4l-0.4-12.2l-0.7-1.7h-13.1c-2,0-3.7-1.3-4.2-3.2l-23.8-78.5l-3.3-1.7l-15.3-6.2l-1.2-0.1l-3.3,3.3
			c-0.2,0.2-0.4,0.3-0.6,0.5l-9,6.5v0.3c0,1.2-0.5,2.3-1.3,3.1l-2.2,2.2c-1.1,1.1-2.7,1.5-4.2,1.2l-7.4-1.7c-1.2-0.3-2.2-1-2.8-2.1
			l-3.5-6.1c-0.2-0.3-0.3-0.7-0.4-1.1l-4.2,8.4l-7.7,23.6l-4.5,12.4l0.4,12l0.4,3.7c0.1,0.6,0,1.2-0.2,1.7l-2.2,7.4
			c-0.2,0.6-0.5,1.1-0.9,1.6l-1.1,1.4v12.9l4.2,5.3c1,1.2,1.2,2.8,0.7,4.3l-3.9,10.9c-0.1,0.2-0.2,0.4-0.3,0.6l-6.6,11.9l-2,13.7
			v6.6c0,1.4-0.6,2.7-1.7,3.5c-1.1,0.8-2.5,1.1-3.9,0.8l-0.6-0.2l9.4,30.4l19.5,63c0.1,0.2,0.1,0.5,0.2,0.8l0.5,4.5l7.6,2.2
			c1.7,0.5,2.9,1.9,3.1,3.6l0.6,3.5l1.6-8.7l0.4-11.4c0.1-1.2,0.6-2.3,1.5-3.1l1.8-1.6l-1.8-6c-0.4-1.5-0.1-3,0.9-4.2l8.3-9.5
			c0.8-0.9,1.9-1.5,3.1-1.5c1.2-0.1,2.4,0.3,3.3,1.1l2.3,2.1l0.6-0.2l12.1-7l0.6-5.6c0.2-2,1.7-3.6,3.7-3.9l5.8-1l2.5-4l-1.1-11.1
			c-0.1-1,0.1-2,0.6-2.8l1.1-1.8l0-0.2l-2.8-3.1c-0.9-1-1.3-2.3-1.1-3.6c0.2-1.3,0.9-2.4,2.1-3.1l5.7-3.5c1-0.6,2.3-0.8,3.4-0.5
			c1.2,0.3,2.2,1.1,2.8,2.2l3.2,5.8l0.7-0.1c0.3-0.1,0.6-0.1,0.9-0.1c-0.1-1,0.2-1.9,0.7-2.8l2.6-3.9c0.4-0.6,0.9-1,1.4-1.4l5.7-3.4
			l2-3.1c0.7-1.1,2-1.8,3.3-2l4.8-0.4c2.4-0.2,4.4,1.4,4.8,3.8c0.1,0.4,0.1,0.8,0.2,1.2l11.1-12.6c0.1-0.1,0.2-0.2,0.4-0.4l9.1-8.2
			c0.5-0.4,1-0.7,1.6-0.9l3.4-1.1l4.4-10v-3L2839.4,374.2z"/>
	</g>
	<g>
		<path class="st1" d="M2674.8,461l-10,13.6c-0.5,0.6-1.1,1.1-1.8,1.4l-3.7,1.6l1.8,2.8c0.4,0.7,0.7,1.5,0.7,2.4v23
			c0,0.1,0,0.2,0,0.4l-2.2,24.6l-0.4,11.4l1.7,2.2c0.6,0.8,0.9,1.8,0.9,2.8l-0.4,12.2c0,0.3-0.1,0.7-0.1,1l-0.3,1l45.8-13.1l3.2-5.4
			c0.5-0.8,1.2-1.4,2-1.7l9.1-4.1l1.2-1.4l1.3-4l-2.8-1c-1.5-0.6-2.6-1.9-2.9-3.5l-0.9-5.5l-7.7-2.2c-1.7-0.5-3-2-3.2-3.8l-0.8-7
			l-19.4-62.6l-10.2-32.1c-0.3,0.1-0.6,0.3-0.9,0.4c-1.4,0.4-2.8,0.1-3.9-0.7l-1.1-0.8l-0.1,0.1l-0.1,11.9l0.7,13.8l4.5,6.3
			c0.5,0.8,0.8,1.7,0.8,2.6v10.8C2675.7,459.4,2675.4,460.3,2674.8,461z"/>
	</g>
	<g>
		<path class="st1" d="M2605,472.9c0.1,0.3,0.2,0.6,0.2,0.9l2.2,13.9c0.1,0.6,0.1,1.2-0.1,1.8l-2.2,8.7l6.3,10.9
			c0.1,0.2,0.2,0.4,0.3,0.6l2.2,5.6c0.3,0.9,0.4,1.9,0.1,2.8l-1.2,4.1l4.3,1.9c0.1,0,0.1,0.1,0.2,0.1l1.7,0.9c1.2,0.6,2,1.7,2.3,3
			l6.4,26.8c0,0.1,0.1,0.3,0.1,0.4l1.6,11.2l6-0.4l13.1-2.6c-0.1-0.7-0.1-1.4,0.1-2.1l1.2-4.3l0.4-10.1l-1.7-2.2
			c-0.6-0.8-0.9-1.8-0.9-2.8l0.4-13c0-0.1,0-0.2,0-0.2l2.2-24.6v-21.5l-2.3-3.7c-0.5-0.7-0.7-1.5-0.7-2.4v-3c0-1.8,1-3.4,2.7-4.1
			l6.1-2.7l8.2-8.9v-7.7l-4.4-6.2c-0.5-0.7-0.8-1.5-0.8-2.3l-0.6-10.2l-61.3,15.8l1.4,8.8L2605,472.9z"/>
	</g>
	<g>
		<path class="st1" d="M2687.3,666.3c-0.1,0.1-0.2,0.2-0.3,0.3l-7.8,7.4c-0.3,0.3-0.7,0.6-1.1,0.8l-21.3,10.4
			c-0.7,0.3-1.5,0.5-2.3,0.4l-6.1-0.4c-0.5,0-0.9-0.1-1.3-0.3l-2.4-0.9l-0.5,0.3l-5.6,6.4c-0.1,0.1-0.2,0.3-0.4,0.4l-3.9,3.5
			c-0.5,0.5-1.2,0.8-1.9,1l-3.5,0.9c-0.5,0.1-1.1,0.2-1.6,0.1l0.3,5l8.5-2.4l15.5-5.2l6.2-2.3l28.7-21.5l4.3-4.5l-2.2-0.8
			L2687.3,666.3z"/>
	</g>
	<g>
		<path class="st1" d="M2625.3,748.5l-0.4-24.2l-1.8-3.7c-0.2,0.1-0.4,0.1-0.7,0.1l-7.4,0.9c-1.4,0.2-2.7-0.3-3.7-1.3l-1.3-1.3
			c-0.9-0.9-1.4-2.1-1.3-3.3c0.1-1.2,0.6-2.4,1.6-3.2l3-2.6l4.2-3.9l0.1-0.8l-1-8.9c-0.1-0.4,0-0.8,0-1.3l1.2-6.8l-0.2-2.4l-4.1-1.8
			l-11.7-2.5c-0.1,0-0.2,0-0.3-0.1l-10.4-3c-0.2-0.1-0.5-0.2-0.7-0.3l-6.9-3.3l-2.3,2.7v6.6c0,0.8-0.2,1.7-0.7,2.4l-4.7,7.4
			l-0.1,1.2l2,2c0.9,0.9,1.4,2.2,1.3,3.4l-0.4,6.5c-0.1,1.6-1,3-2.4,3.7l-2.8,1.4l1.1,3.8c0,0.1,0.1,0.2,0.1,0.3l4,0.5
			c1.7,0.2,3.1,1.3,3.6,2.9l2.1,5.6l14.9,10c1.2,0.8,2,2.2,2,3.7v2.2c0,1.2-0.5,2.4-1.4,3.2l-8.4,8l-3.9,5.5l-3.8,7.1
			c-0.4,0.7-1,1.4-1.7,1.8l-7.6,4.4l-0.3,1.3l-1.3,5.6l1.9,3.8l7.6,6.8l11.9,5.5l10.2,1.6c1.5,0.2,2.7,1.2,3.3,2.4l0.7-4.4
			c0.1-0.6,0.4-1.2,0.7-1.8l7.2-10.6l7.9-16.6l2.6-12.6l-0.9-1.6C2625.5,750,2625.3,749.3,2625.3,748.5z"/>
	</g>
	<g>
		<path class="st1" d="M2344.1,758.7c0,0.1,0,0.2,0.1,0.3l8.8,47.3l4.4-0.9c0.1,0,0.2,0,0.3-0.1l31.9-4l101.7-20.6l40-7.6l21.1-4.1
			c0,0,0,0,0,0l5.6-4.3c0.4-0.3,0.9-0.6,1.4-0.7l5.2-1.7l2.6-1.5c0.3-0.2,0.7-0.3,1-0.4l4.2-1.1l3-5.7c0.1-0.2,0.2-0.3,0.3-0.5
			l4.3-6.1c0.2-0.2,0.4-0.4,0.6-0.6l6-5.7l-3.2-2.2l-9.6-6.5c-0.7-0.5-1.3-1.3-1.7-2.1l-1.7-4.4l-4.7-0.6c-2-0.2-3.6-1.8-3.9-3.8
			l-0.4-2.7l-2.1-7.1c-0.6-2.1,0.4-4.3,2.3-5.2l3.8-1.9l0.1-2l-2-2c-0.9-0.9-1.4-2.3-1.3-3.6l0.4-4.4c0.1-0.7,0.3-1.4,0.7-1.9
			l4.5-7.2v-7c0-1.2,0.5-2.3,1.3-3.1l2.3-2.4c-0.8-0.1-1.5-0.5-2.1-1l-6.1-5.2c-0.5-0.4-0.9-0.9-1.2-1.5l-5.7-12.5l-6.2-1.9
			c-0.6-0.2-1.2-0.5-1.7-1l-4.6-4.2l-47.7,10.4l-115.6,23.5l-24.1,3.9c-1.2,0.2-2.5-0.1-3.5-0.9c-1-0.8-1.6-1.9-1.7-3.2l-0.6-9.1
			l-7.8,8c-0.4,0.5-1,0.8-1.6,1.1l-2.9,1.1l-8.6,6.2l7.4,48.5L2344.1,758.7z"/>
	</g>
	<g>
		<path class="st1" d="M2562.5,775.9l0.1-0.5l-0.3,0.2l-1.7,1.7l0.9,2.7l1-4C2562.5,776,2562.5,776,2562.5,775.9z"/>
	</g>
	<g>
		<path class="st1" d="M2594.2,827.3l-9.5-6.5c-0.8-0.5-1.3-1.2-1.7-2.1l-4.7-12.3l-4.3-7.9l-4.7-2c-0.9-0.4-1.6-1-2.1-1.8l-0.9-1.5
			l3.2,8c0.1,0.2,0.2,0.5,0.2,0.7l5.6,26.1l3.4,13.3l9.5-0.3l11.3-2.2l-3.3-10.6C2595.6,828,2594.9,827.7,2594.2,827.3z"/>
	</g>
	<g>
		<path class="st1" d="M2400.4,820.7l1,6.1l6.4-7.4c0.6-0.7,1.4-1.2,2.3-1.4l5.3-1.4l2.8-2.8l4.6-6.6c0.2-0.3,0.5-0.6,0.7-0.8
			l-25.2,5.1l2,9C2400.4,820.5,2400.4,820.6,2400.4,820.7z"/>
	</g>
	<g>
		<path class="st1" d="M2430.7,806.9l5.2-0.6l4-3.3l-12.1,2.4c0.2,0.1,0.4,0.2,0.6,0.2L2430.7,806.9z"/>
	</g>
	<g>
		<path class="st1" d="M2601,855.9l0.3-6.4l-10.9,2.3c-0.2,0.1-0.5,0.1-0.8,0.1l-15.6,0.4c-2,0.1-3.9-1.3-4.4-3.3l-5-19.1
			c0-0.1,0-0.1,0-0.2L2559,804l-5.9-14.8c-0.1-0.1-0.1-0.3-0.1-0.4l-2.3-7.8l-16.1,3.5l-40.1,7.6l-33,6.6l0.3,0.2l7.5,3.8
			c0.4,0.2,0.7,0.4,1,0.7l5.2,4.8c0.2,0.2,0.3,0.3,0.5,0.5l2.5,3.2l10,4.1c1.7,0.7,2.8,2.3,2.8,4.1v4.3l11.3,2.7
			c0.2,0.1,0.4,0.1,0.6,0.2l1.7-2.4c1.4-2,4.1-2.5,6.2-1.1l7.7,5.3c1.8,1.3,2.5,3.7,1.4,5.7l-3.1,6.1l-1.9,10.1
			c-0.1,0.6-0.4,1.2-0.7,1.7l-4,5.8v3.5l0.7,1.9l10.8,2.9l11-0.1c0.5,0,1,0.1,1.4,0.2l7.9,2.5l2,0.3l0.1-0.3l-2.5-3.6
			c-0.5-0.7-0.8-1.6-0.8-2.5v-2.8l-5-4.3c-0.6-0.5-1-1.1-1.2-1.8l-5.6-14.8c-0.3-0.8-0.4-1.8-0.2-2.6l3.3-13.7l-0.2-3.3l-2.3-2.3
			c-1.7-1.7-1.7-4.4-0.2-6.1c1.1-1.3,2.4-3,2.8-3.7c0.2-2.2,1.1-5.2,1.5-6.5c0.3-0.9,0.9-1.7,1.7-2.3l5-3.3l5-4.2
			c1-0.9,2.4-1.2,3.8-0.9c1.3,0.3,2.5,1.1,3.1,2.4l1.3,2.6c0.8,1.6,0.6,3.6-0.7,5l-3.3,3.7l-2.4,7l1.5,0.3c2,0.4,3.4,2,3.6,4
			l1.3,14.8c0.1,1.5-0.5,2.9-1.6,3.8l0.1,0.1l4.3,4.8c0.8,0.9,1.2,2.1,1.1,3.3c-0.1,1.2-0.7,2.3-1.7,3.1l-2.9,2.3l-0.5,5.5l4.8,6.2
			l7.2,0.9l3.1-1.6c1.9-1,4.2-0.4,5.5,1.2l7.9,10.3l0.8,0.3l14.7-6.2L2601,855.9z"/>
	</g>
	<g>
		<path class="st1" d="M2320.9,841.1l-6.1,4.3c-1,0.7-2.3,1-3.6,0.7l-3.1-0.7l-1.5,1.7l-5.9,8.9c-0.1,0.1-0.1,0.1-0.1,0.2l-1.7,2.3
			v3.7l2.3,3.7c0.7,1.1,0.9,2.4,0.5,3.7l-1.3,4.3c-0.3,1.1-1.1,2.1-2.1,2.6l-4.8,2.6c-1.2,0.7-2.6,0.7-3.9,0.2
			c-1.2-0.5-2.2-1.6-2.5-2.9l-0.6-2.3l-1.5,6.1l-0.4,13c0,1.2-0.6,2.4-1.5,3.2l-3,2.7l-0.3,5.6c-0.1,1.7-1.2,3.2-2.7,3.8l-5.2,2.2
			c-0.5,0.2-1,0.3-1.5,0.4l-1.4,0l0.4,8.7l1.2,2.3l5.8,3.2c1,0.6,1.8,1.5,2.1,2.6l1.5,5.2l7.1,9.2l6.4,6.8l8,5
			c0.5,0.3,0.9,0.7,1.2,1.2l5.7,7.8l2.4,2.4l5.6,1.5l4.7-1.2l5.7-5.3c1.6-1.5,4.1-1.6,5.8-0.2c1.2,1,2.7,2,3.5,2.4
			c2-0.4,6-1.3,8.6-1.9l3.9-10.3c0.9-2.3,3.4-3.4,5.7-2.6l4.7,1.7l6.7-5c1-0.8,2.4-1.1,3.6-0.8l1.6,0.4l2.6-2.4l0.2-4.2l-1.4-2.3
			c-0.8-1.3-0.9-2.8-0.3-4.2l13.4-28.8l5.4-17l0.8-11.2c0.2-2.2,1.8-3.9,4-4.1l4.8-0.4c1.7-0.2,3.4,0.7,4.2,2.2l3.8,6.4l1.5,0.9h2
			l2.3-11l0.8-8c0.2-2.1,1.9-3.8,4-4l5.9-0.6l0.6-2.9c0.2-1,0.8-1.9,1.6-2.6l7.3-5.8l1.3-3.2c0.1-0.2,0.2-0.4,0.3-0.6l4-6.8l1.1-4.6
			l0.4-13.5l-0.7,0.6c-0.7,0.5-1.5,0.9-2.3,1l-7.8,0.9c-0.8,0.1-1.5,0-2.3-0.3l-2.5,3.7c-0.1,0.2-0.3,0.4-0.5,0.6l-3.9,3.9
			c-0.6,0.6-1.3,1-2.1,1.2l-5.2,1.3l-5.1,7c-0.2,0.3-0.5,0.6-0.9,0.9l-9.6,7.4c-1.2,1-2.9,1.2-4.4,0.6c-1.5-0.6-2.5-1.9-2.8-3.4
			l-2.9-18.4l-2.1-9.2l-26.3,3.6l-12.3,2c-2.4,0.4-4.7-1.2-5.1-3.6l-3.9-22.2l-1,10.2l-0.9,15c-0.1,0.7-0.2,1.4-0.6,2l-6.1,10.4
			c-0.2,0.3-0.3,0.5-0.6,0.7l-8.2,9.1C2321.4,840.7,2321.2,840.9,2320.9,841.1z"/>
	</g>
	<g>
		<path class="st1" d="M2459.8,816c0.2,0.1,0.3,0.1,0.5,0.2l8.9,4.8l0.1-3.3l-7-6.4l-5.4-2.7c-0.2-0.1-0.5-0.3-0.7-0.5l-1.8-1.4
			l-2,0.5l-5.2,3.8c0.2,0,0.3,0.1,0.5,0.2L2459.8,816z"/>
	</g>
	<g>
		<path class="st1" d="M2163.7,898.9l-7.4,5.2c-0.2,0.2-0.5,0.3-0.7,0.4l-10.4,4.8c-0.4,0.2-0.9,0.3-1.3,0.4l-3.9,0.4l-0.9,8.6
			c-0.1,1.2-0.7,2.2-1.6,3l-12.3,10.2l-6.3,7.7l0.6,4.2c0.1,0.7,0,1.5-0.3,2.2l-2.2,5.6c-0.7,1.7-2.3,2.9-4.1,2.9h-12.6
			c-1.4,0-2.8-0.7-3.6-1.9l-0.5-0.7l-5.2,2.9l0.3,6.4c0.1,2.2-1.4,4.1-3.4,4.5l-5.6,1.3c-1.8,0.4-3.6-0.3-4.6-1.8l-1.8-2.6l-2.5-2.1
			l-4,2l-4.1,7.5c-1.1,2-3.6,2.9-5.7,1.9l-4.8-2.2c-0.7-0.3-1.3-0.8-1.7-1.4l-2.3-3.1l-7,0.9l-14.7,2.5l-5.8,3.3l-2.3,7.3
			c-0.3,0.9-0.9,1.7-1.7,2.3l-0.4,0.2l0.6,1.9l2.1,4.6c0.5,1.1,0.5,2.4,0.1,3.5c-0.4,1.1-1.3,2-2.5,2.5l-4.3,1.7
			c-0.2,0.1-0.4,0.1-0.6,0.2l-6.1,1.5l-3,2.3l-0.4,2.8l2.8,5.2c0.4,0.7,0.6,1.6,0.5,2.4l-0.4,6.1c-0.1,1.9-1.4,3.4-3.2,3.9l-3,0.9
			c-0.9,0.3-1.9,0.2-2.7-0.1l-9.6-3.5c-0.1,0-0.2-0.1-0.4-0.1l-5.8-2.8l-3.2,1l-4.5,3.6l-0.8,1.9l3.1,4.9c0.8,1.3,0.9,3,0.2,4.4
			l-2.1,4.1l-0.6,7.7c-0.1,1.3-0.7,2.5-1.8,3.3l8.6-0.2l18.5-1.7c0.1,0,0.2,0,0.3,0l17.8-0.3l0.4-7.2c0.1-2.4,2.1-4.2,4.5-4.2
			l10.1,0.1l54.5-6.1l139.4-13.2l8.4-0.9l14.4-8.6c0.1,0,0.1-0.1,0.2-0.1l8.1-4.4v-3c0-1.2,0.5-2.3,1.3-3.1l4.5-4.5l11.3-15.6
			c0.2-0.3,0.5-0.6,0.7-0.8l11-9.3l2.5-2.9l-4.5-2.6c-0.4-0.2-0.7-0.5-1-0.8l-7-7.4c-0.1-0.1-0.2-0.2-0.3-0.3l-7.8-10
			c-0.4-0.4-0.6-1-0.8-1.5l-1.2-4.3l-5.4-3c-0.8-0.4-1.4-1.1-1.8-1.9l-2.2-4.3c-0.3-0.6-0.4-1.2-0.5-1.9l-0.4-12.9l-4.7-4.3
			l-4.3-2.3c-1.1-0.6-1.9-1.7-2.2-2.9l-0.8-3.6l-2.8,2.1l-7.2,6.8c-0.9,0.8-2,1.2-3.3,1.2c-1.2-0.1-2.3-0.6-3.1-1.5l-2.4-2.7
			l-5.1-0.8l-5.1,3.1c-0.8,0.5-1.7,0.7-2.6,0.6l-5.6-0.4c-1.1-0.1-2.1-0.6-2.8-1.3l-3.6-3.6l-13.9-0.8c-1.8-0.1-3.3-1.2-3.9-2.9
			l-3.8-10.2l-4.7-2.6l-4.7,1.5c-0.4,0.1-0.7,0.2-1.1,0.2l-7.8,0.5l-0.1,0.3l2.1,2.1c0.7,0.7,1.1,1.5,1.2,2.4l0.9,5.2
			C2165.8,896.2,2165,897.9,2163.7,898.9z"/>
	</g>
	<g>
		<path class="st1" d="M2216.4,728.1c-0.9,0.1-1.9-0.1-2.7-0.5l-12-6.8l-11.6,1.7l-44.1,7l3.1,35.1l4.8,36.8l7,63.1l1,8.9l6.3-0.2
			l5.9-2c1-0.4,2.2-0.3,3.2,0.2l9,4c1,0.4,1.7,1.2,2.2,2.2l4.4,9.2l11,0c0,0,0,0,0,0c1.3,0,2.5,0.5,3.3,1.5l3.7,4.1l1.6-0.1l5.9-3.1
			c0.8-0.4,1.8-0.6,2.7-0.5l6.7,1c0.7,0.1,1.4,0.4,2,0.8l1.9,1.4l2-2.4c0.4-0.4,0.8-0.8,1.3-1.1l6.3-3.5c0.2-0.1,0.5-0.2,0.7-0.3
			l5.6-1.8c1.2-0.4,2.5-0.3,3.6,0.3c1.1,0.6,1.9,1.7,2.2,2.9l1.3,5.4l3,1.7c0.1,0.1,0.2,0.1,0.4,0.2l8.1,5.5l2.7-0.1l0.5-0.5
			l-0.1-1.8c-0.1-1.3,0.5-2.6,1.5-3.5l2.9-2.6l0.4-11.6c0-0.3,0.1-0.6,0.1-0.9l2.6-10.4c0.2-0.8,0.6-1.6,1.2-2.2l4.1-3.9
			c1.4-1.4,3.6-1.6,5.3-0.6l0.2,0.1v-5.8c0-1,0.3-1.9,0.9-2.7l2.5-3.4l6-9c0.1-0.2,0.2-0.3,0.4-0.5l3.5-3.9c1.1-1.2,2.7-1.7,4.3-1.4
			l3.7,0.9l4.1-2.9l7.6-8.4l5.3-9.1l0.5-13.5c0-0.1,0-0.2,0-0.3l1.3-13.2v-11.6l-2.8-7.5c-0.5-1.3-0.3-2.8,0.5-4l2.6-3.9
			c0.2-0.2,0.3-0.4,0.5-0.6l1-1l-3.5-24.3l-6.8-45.1l-10.6,7c-0.1,0-0.1,0.1-0.2,0.1l-9.8,5.7l-8.7,9.5c-0.1,0.1-0.1,0.1-0.2,0.2
			l-10.9,10.4c-0.6,0.5-1.2,0.9-2,1.1l-8.7,2.2c-0.1,0-0.2,0.1-0.4,0.1l-7.2,1.2l-14.2,6.7c-0.5,0.2-1,0.4-1.5,0.4l-5.7,0.4
			c-1.2,0.1-2.4-0.3-3.3-1.1l-7.6-6.9L2216.4,728.1z"/>
	</g>
	<g>
		<path class="st1" d="M2130.8,494.5l-0.4,0.4c-1.4,1.4-3.4,1.7-5.1,0.8l-2.6-1.3c-0.2-0.1-0.4-0.2-0.7-0.4l-5.8-4.3l-5,3.1
			l-5.7,4.4l0.4,4.2l5.1,1.2c1.2,0.3,2.2,1,2.8,2l1.3,2.2c0.7,1.2,0.8,2.6,0.4,3.9c-0.5,1.3-1.5,2.3-2.8,2.7l-7,2.2
			c-0.3,0.1-0.5,0.1-0.8,0.2l-5.2,0.7l-2,2.5l-0.6,3.7l0.7,3.6c0,0.2,0.1,0.4,0.1,0.6l0.9,14.8c0.1,1.7-0.7,3.2-2.2,4.1l-9.5,5.7
			c-1,0.6-2.2,0.8-3.3,0.5l-1.7-0.4c-2-0.5-3.4-2.3-3.4-4.3v-8.4l-5.1,2.1l-2.9,3.1l0.3,0.3c0.9,1.1,1.2,2.5,0.8,3.9l-1.7,7
			c-0.4,1.6-1.7,2.9-3.4,3.3l-2.2,0.5l1.5,4.6c0.2,0.7,0.3,1.5,0.2,2.2l-3,16.5c-0.1,0.3-0.1,0.6-0.2,0.8l-3.9,9.8l1.5,10.8l1.1,2.5
			c0.4,1,0.5,2.1,0.1,3.1l-2.2,6.5c0,0.1-0.1,0.2-0.1,0.2l-0.7,1.6l-0.6,5.3l8.8,14.8c0.1,0.2,0.2,0.3,0.2,0.5l7.8,17.4
			c0.1,0.2,0.1,0.4,0.2,0.6l3.9,13c0.2,0.7,0.2,1.4,0.1,2l-2.2,12.6l-2.6,16c-0.1,0.4-0.2,0.8-0.4,1.2l-6.2,13.2l-0.8,6.7
			c-0.1,1-0.6,2-1.4,2.7l-0.2,0.2l57.3-6l19.4-2.6c1.2-0.2,2.5,0.2,3.4,1c0.8,0.7,1.4,1.6,1.5,2.7l13.5-2.4l27.8-4.1l7.2-0.9l0.2-2
			c0.1-0.6,0.2-1.2,0.5-1.7l5.7-10c0.2-0.4,0.6-0.8,1-1.2l3.8-3.3l-0.5-11.4c-0.1-1.2,0.4-2.5,1.3-3.3l4.3-4.3
			c0.5-0.5,1.1-0.9,1.8-1.1l0,0l0.4-6.5c0-0.6,0.2-1.2,0.5-1.7l4.1-8.1c0.6-1.1,1.5-1.9,2.7-2.3c1.2-0.3,2.4-0.2,3.5,0.4l2.8,1.6
			c0.4,0.2,0.7,0.5,1,0.8l0.1-0.1l-0.7-22l-8.4-21.4c-0.1-0.2-0.1-0.4-0.2-0.6l-5.9-23.4l-5.5-7.4l-3.8-2.6l-1.8,1.3
			c-0.2,0.2-0.4,0.3-0.7,0.4l-8.8,4l-4.6,11.8c-0.1,0.4-0.3,0.7-0.6,1l-7.4,10c-0.4,0.5-0.8,0.9-1.4,1.2l-3,1.7
			c-1.2,0.7-2.7,0.8-4,0.2l-3.9-1.7c-0.1-0.1-0.2-0.1-0.4-0.2c-8.7-4.9-9.3-8.1-8.6-10.6c0.2-1.1,0.8-7.4,1.2-12.7
			c0.1-1.7,1.2-3.2,2.8-3.8l6.9-2.6l3.4-13.8c0.3-1.1,0.9-2,1.8-2.6l4.5-3l-0.7-23.1l-3.1-4.3l-2.7-1.7c-0.8-0.5-1.4-1.3-1.8-2.2
			l-2.2-5.7c-0.6-1.6-0.2-3.5,1-4.7l2.2-2.2c0.3-0.3,0.6-0.6,1-0.7l-2.6-2.4c-0.4-0.4-0.7-0.8-0.9-1.3l-2.2-4.5h-4.2
			c-0.4,0-0.9-0.1-1.4-0.2l-12.2-3.9c-0.3-0.1-0.7-0.3-1-0.4l-13.7-8.5H2130.8z"/>
	</g>
	<g>
		<polygon class="st1" points="1929.9,375.6 1938.8,370.4 1952.6,356.6 1951.4,355.3 1945.2,356.9 1930.8,367.3 1924.9,369.5 
			1920,375 1924.3,378.1 		"/>
	</g>
	<g>
		<path class="st1" d="M1894.6,466.6l19.3,2.8c0.2,0,0.3,0.1,0.5,0.1l22.1,5.8c0.1,0,0.2,0.1,0.4,0.1l7.4,2.7l32.3,7.3
			c0.9,0.2,1.7,0.7,2.3,1.4l4.8,5.4l8.5,3.3c1.4,0.6,2.5,1.8,2.8,3.3l4.9,25.9l1.2,0.9l6-13.1l2.5-10.4c0.1-0.3,0.1-0.5,0.2-0.8
			l5.2-11.7c0.6-1.3,1.8-2.3,3.2-2.6l2.2-0.4c1.7-0.4,3.5,0.4,4.5,1.8l1.2,1.8l10-5.3c1.8-1,4-0.6,5.4,1l1.7,1.9l2.6-7
			c0.5-1.3,1.5-2.3,2.8-2.7l6.5-2.2c0.3-0.1,0.7-0.2,1-0.2l16.7-1.5l4-5.4c0.8-1.1,2.1-1.7,3.4-1.8l13.9-0.4c0.4,0,0.7,0,1.1,0.1
			l15.1,3.4h3.3l7.8-3.5c0.7-0.3,1.4-0.4,2.2-0.4l5.2,0.4l4.9-1.5c0.6-0.2,1.2-0.2,1.9-0.2l0.2,0l-3.9-3.7c-0.9-0.9-1.4-2-1.4-3.2
			v-13.3c-0.4,0.3-0.9,0.5-1.4,0.6l-21.8,5.7c-0.7,0.2-1.5,0.2-2.3,0l-7.8-2.2c-0.5-0.1-0.9-0.3-1.3-0.6l-1.3-0.9
			c-1.2-0.8-2-2.2-2-3.7v-10.4l-4.4,2.2c-0.1,0-0.2,0.1-0.2,0.1l-12.2,5.2c-0.5,0.2-1,0.3-1.5,0.4l-17.2,0.8l-7.7,2.6l-10.2,9
			c-0.2,0.2-0.4,0.3-0.6,0.5l-4.4,2.6c-0.7,0.4-1.5,0.6-2.3,0.6h-1.8l-2.4,1.5c-1.1,0.7-2.4,0.9-3.6,0.5l-4.4-1.3
			c-0.5-0.2-1-0.4-1.5-0.8l-1.8-1.4l-1.2,0.8c-0.7,0.5-1.5,0.7-2.3,0.7l-10.4,0.4c-1.3,0.1-2.5-0.4-3.3-1.3l-7.4-7.4
			c-0.4-0.4-0.7-0.8-0.9-1.2l-3.4-7.3l-2.4-1.9l-7.3-2.2h-5.4c-1.2,0-2.3-0.5-3.1-1.3l-0.6-0.6l-6.1,5l-2.4,2.8
			c-1.4,1.6-3.8,2-5.7,0.9l-2.2-1.3c-1.5-0.9-2.3-2.6-2.1-4.4l0.9-7c0.1-0.8,0.4-1.5,0.9-2.1l5.9-7.9l1.1-5.5
			c0.3-1.5,1.4-2.8,2.9-3.3l4.3-1.5l3.1-6.6c0.1-0.2,0.2-0.4,0.3-0.6l-10.1,5.6l-5.4,5.4l-3.3,4.5c-0.4,0.6-1,1.1-1.7,1.4l-3.6,1.7
			l-3.9,5.9l-0.3,2.4c-0.2,1.5-1.1,2.8-2.5,3.4l-11.3,5.4l-6.1,4.9c-0.6,0.5-1.3,0.8-2.1,0.9l-14.1,2.3v0.3c0,1.5-0.8,2.9-2.1,3.8
			l-9.5,6.1c-0.4,0.2-0.7,0.4-1.1,0.5l-3.9,1.1L1894.6,466.6z"/>
	</g>
	<g>
		<path class="st1" d="M2160.3,467.5l0.4-0.4c-0.6-0.6-1.5-1.5-2.6-3l-2,0.2l0.8,3L2160.3,467.5z"/>
	</g>
	<g>
		<polygon class="st1" points="1194.2,537.7 1150.5,532.2 1074.3,521.1 1025.3,513.8 1022.1,539.3 1011.7,604.6 997.6,686.4 
			993.5,714.5 989.6,742.1 1002.7,743.9 1072.1,750.6 1226.2,767.9 1285.8,775 1297.4,660.9 1301.3,592.8 1304.5,548.4 
			1280.5,546.6 		"/>
	</g>
	<g>
		<path class="st1" d="M867.3,318.4l-3.2,10.8l3.6,9.1l6.9,3c1,0.4,1.9,1.3,2.3,2.3l12.1,28.3l6.8,8c0.3,0.4,0.6,0.8,0.7,1.2
			l0.5,1.2l7.3,2.4c1.5,0.5,2.6,1.7,2.9,3.3l1.2,5.5c0.2,0.9,0.1,1.8-0.2,2.6l-18.7,46.5v4.4l4.2,5.3L904,446l1.3-2.1
			c1.1-1.9,3.5-2.7,5.6-1.8l4.3,1.8c1.7,0.7,2.8,2.4,2.7,4.3l-0.6,13.5l6.9,31.8l6.7,5.7l2.4,1.8c0.3,0.2,0.6,0.5,0.8,0.8l4.9,6.2
			c0.8,0.9,1.1,2.2,0.9,3.4l-1.1,8.5l1,4.9l2.4-2.4c0.8-0.8,2-1.3,3.1-1.3h7.4c0.7,0,1.4,0.2,2,0.5l6.9,3.4l5-1.8
			c0.5-0.2,1-0.3,1.5-0.3h11.1c0.6,0,1.2,0.1,1.8,0.4l8.6,3.8l2.9-0.5l0.7-4.8c0.3-1.8,1.6-3.2,3.4-3.6l8-1.8
			c1.5-0.3,3.1,0.1,4.1,1.2l3.7,3.7c0.1,0.1,0.2,0.3,0.4,0.4l2.2-16.7c0.1-1.2,0.8-2.2,1.7-3c0.8-0.6,1.7-0.9,2.7-0.9
			c0.2,0,0.4,0,0.6,0.1l55.6,8l75.7,10.6l44.4,5.1l84.5,9.3l24.9,3.5l2.5-36.7c0-0.3,0.1-0.6,0.1-0.8l3.7-13.9l1.7-29.5l6.1-66.7
			c0.4-4.4,0.9-8.4,1.3-12.3c0.9-8.1,1.9-16.4,2.4-28.9l2.2-34.9l-78.1-7.1l-78.7-9.6l-78.7-10.9l-87-14.3l-49.6-9.1l-83.7-17.7
			l-10.8,51.6l8.6,19C867.5,316.3,867.6,317.4,867.3,318.4z"/>
	</g>
	<g>
		<path class="st1" d="M798.3,379.4l-1,24.8l2.9,9.7l8.1,6.2c1.2,0.9,1.8,2.3,1.7,3.8l-0.6,10.1c-0.1,1-0.5,1.9-1.1,2.7L798,448.2
			l-10.3,15.4c-0.3,0.4-0.6,0.8-1,1.1l-1.1,0.8l-1.2,6.9c-0.2,0.9-0.6,1.7-1.2,2.4l-3.1,3.1c-0.6,0.6-1.3,1-2.1,1.2l-3.5,0.9
			l-10.2,12.6l-0.8,7c0,0.2-0.1,0.5-0.1,0.7l3.2-0.1c1.7-0.1,3.3,0.8,4.1,2.3l3.4,6.1c0.6,1.2,0.7,2.6,0.2,3.9l-6.7,15.8l-3.6,11
			l-11.6,47.4l-10.8,42.6c2.6,0.6,3.8,0.9,5,1.2c3.3,0.9,5.7,1.5,47.2,9.5l24.8,4.8l24.8,4.5l23,5l33.6,6.7l32.7,6.4l48.1,9l6.9,0.5
			l13.1-74l9.8-62.2l-4.8-5.2c-0.5-0.5-0.8-1.1-1-1.8l-1.4-5l-1,0.7l-2,5c-0.6,1.5-2,2.6-3.6,2.8l-7.4,0.8c-0.7,0.1-1.5,0-2.2-0.3
			l-9.8-3.9l-8.8,0.4l-6.3,1.5c-1,0.2-2,0.1-2.9-0.3l-7.7-3.7l-4.5,0.8l-4.9,3.8c-1.3,1-3.1,1.2-4.6,0.5l-5.2-2.5
			c-1.3-0.6-2.2-1.8-2.5-3.2l-1.8-10.1c-0.1-0.7-0.1-1.4,0.1-2l1.4-5.2l-4.2-4.8c-0.2-0.3-0.5-0.6-0.6-0.9l-0.7-1.4l-8.5-6.6
			c-0.8-0.7-1.4-1.6-1.6-2.6l-6.9-34.6c0-0.2-0.1-0.4-0.1-0.6l-0.3-4.8l-7.6,5.7c-1.1,0.8-2.5,1.1-3.8,0.8l-5-1.3
			c-0.8-0.2-1.6-0.7-2.2-1.3l-7.2-7.7c-0.7-0.7-1.1-1.6-1.2-2.6l-0.9-8.9c-0.1-0.7,0-1.4,0.3-2.1l18.1-43.9l-0.5-3l-6.7-2.2
			c-1.1-0.4-2-1.1-2.5-2.1l-1.5-2.8l-7.1-10c-0.2-0.2-0.3-0.5-0.4-0.7l-11.3-25L860,346c-0.9-0.5-1.6-1.2-2-2.2l-5.4-12.3
			c-0.4-0.9-0.5-1.8-0.2-2.8l2.5-11l-7.4-19.4c-0.3-0.8-0.4-1.6-0.2-2.4l10.3-53.4l-26.2-5.1l-1.2,5.9c0,0.1,0,0.2-0.1,0.3
			L820,279.8l-11.9,55.8L798.3,379.4z"/>
	</g>
	<g>
		<path class="st1" d="M1764.5,1401.4l1.6-17.8l-0.8-1.5c-0.2-0.4-0.3-0.8-0.4-1.2l-1.3-7l-10-16.2c-0.2-0.4-0.4-0.8-0.5-1.2
			l-2.7-10.3l-6.9-11.8c-0.3-0.5-0.5-1.1-0.6-1.7l-1.4-10.9c0-0.1,0-0.2,0-0.3l-1.8-25.6l-0.9-26.2l-1.2-24.6l-1.4-0.7l-7.2,2
			c-1.2,0.3-2.6,0.1-3.6-0.6l-6.4-4.2l-6.8-3.5l-9.1-2.8c-0.3-0.1-0.6-0.2-0.9-0.4l-7.7-4.5c-0.5-0.3-1-0.7-1.3-1.2l-2.7-3.6
			l-1.3-0.2l-5.1,2.7c-0.6,0.3-1.4,0.5-2.1,0.5h-11.5c-1.5,0-2.9-0.8-3.7-2l-5.3,2.7c-1.1,0.6-2.5,0.6-3.7,0.2l-4.3-1.7h-5.9
			l-1.3,3.7c-0.4,1.3-1.4,2.3-2.7,2.8l-5.8,2c-0.8,0.3-1.6,0.3-2.5,0.1l-8.9-2c-0.2,0-0.4-0.1-0.5-0.2l-8.7-3.1l-11.6-2.6
			c-0.8-0.2-1.5-0.6-2.1-1.1l-2.3,4.7c-0.7,1.4-2.1,2.4-3.7,2.5l-7.1,0.6c-0.7,0.1-1.4-0.1-2.1-0.3l-12.5-5.4
			c-1.3-0.6-2.3-1.7-2.6-3.1l-0.4-1.8l-3-0.2c-0.2,0-0.5-0.1-0.7-0.1l-2.2-0.5l-5.8,3.8c-1.2,0.8-2.7,0.9-4,0.4l-8.3-3.1
			c-1.8-0.7-3-2.5-2.8-4.5l0.1-1.7c-0.7-0.3-1.3-0.8-1.8-1.4l-4.3-5.9l-4.3-0.6l-7.5,3.7c-1.6,0.8-3.4,0.5-4.8-0.6l-4.9-4.1
			l-9.4-1.2c-0.2,0-0.5-0.1-0.7-0.2l-7.1-2.2l-11.4-2.7c-2.1-0.5-3.6-2.5-3.4-4.7l0.4-4.2l-0.7,0.3c-0.9,0.4-2,0.5-3,0.2l-4.7-1.3
			c-1,0.9-2.3,1.4-3.7,1.2l-4.9-0.7c-0.4-0.1-0.9-0.2-1.3-0.4l-4.7-2.2c-0.4-0.2-0.7-0.4-1-0.7l-11.7-10.3c-0.9-0.8-1.5-2-1.5-3.2
			l-0.2-5.6v-0.2l0.8-48.8c0-0.1,0-0.2,0-0.4l5.8-58.3l-78.8-2.9l-57.2-2.7l-3.9,46l-10.4,149.2l-6.2,64c-0.2,2.4-2.3,4.2-4.7,4
			l-78-4.3l-78.2-7.4l-15.9-1.4l0.6,4.1l2.3,0.6c0.9,0.2,1.6,0.7,2.2,1.4l7,7.8c0.4,0.4,0.7,1,0.9,1.5l3.3,9.9l10.9,5.3
			c1,0.5,1.8,1.3,2.2,2.3l3.2,8l18.6,20.7c0.1,0.1,0.1,0.1,0.2,0.2l2.8,3.4l12.4,5.2c0.9,0.4,1.7,1.1,2.2,2l2.5,4.6l3.3,2
			c1.1,0.7,1.9,1.8,2.1,3l1.2,6.8l8.4,16.8c0.3,0.6,0.5,1.3,0.5,2v20.7l5.3,11l18.8,19.6l13,5.3c0.6,0.2,1.2,0.6,1.6,1.1l4.8,5.2
			c0.6,0.6,0.9,1.3,1.1,2.1l7.9,4.6l4.8,1.6c0.4,0.1,0.7,0.3,1,0.5l4.4,2.8l3.8,1.4l4.2-4.2l11-15.5l2.4-9.2c0.1-0.5,0.4-1,0.7-1.4
			l6.1-8.7c0.5-0.7,1.2-1.2,2-1.6l9.5-3.9l12.2-4.8c1.4-0.6,3-0.3,4.3,0.6l7.3,5.3l18.7,1.6c0.1,0,0.2,0,0.4,0l18.2,3
			c0.8,0.1,1.5,0.4,2.1,0.9l7,5.6c1,0.9,1.7,2.1,1.7,3.4v1.4l5.7,6.8l15.8,14.1c0.8,0.7,1.3,1.7,1.5,2.8l0.3,2.5l3.8,4.1
			c0.6,0.6,0.9,1.4,1.1,2.2l2.1,10.8l14.1,32.6c0.3,0.7,0.4,1.4,0.4,2.1l-0.2,2.5l9,5.5c0.7,0.4,1.2,1,1.6,1.7l9.4,17.5l8.2,10.5
			l7.6,3c0.8,0.3,1.5,0.9,2,1.5l4.3,6.1c0.8,1.1,1,2.5,0.7,3.8l-2.9,9.7l2.3,1.2c1.7,0.8,2.6,2.6,2.5,4.4l-0.9,9.1
			c-0.1,1-0.5,1.9-1.2,2.6l0.5,1.9l7.2,4.3c1.1,0.7,1.8,1.7,2.1,3l3.3,16.7l4.6,8.5l18.6,8.3l13.5,3c0.6,0.1,1.2,0.4,1.7,0.7
			l10.5,7.7l6.5,1.3l2.3-0.9c0.5-0.2,1-0.3,1.5-0.3c0.3,0,0.6,0,0.9,0.1l14.8,3c0.6,0.1,1.1,0.4,1.6,0.7l12.8,8.8l5-3.1l0.5-0.7
			l-3.2-4.9c-0.3-0.5-0.6-1.1-0.7-1.7l-2.6-16.3l-4.7-18.3l-2.1-6.4c-0.2-0.7-0.3-1.5-0.2-2.2l2.2-12.2c0-0.2,0.1-0.3,0.1-0.5
			l6.5-22.6l3.2-12l-4-3.4c-1.5-1.3-2-3.5-1.1-5.4l2.6-5.2c0.7-1.4,2.1-2.3,3.6-2.5l8.8-0.7l9.2-13.1c0.7-0.9,1.7-1.6,2.8-1.8
			l8.3-1.6l14.7-9l4.6-3.7c0.2-0.2,0.4-0.3,0.7-0.5l16.9-9.1c0.1-0.1,0.2-0.1,0.4-0.2l14.9-6.4l13.9-8.4l7-5.4l15-14.2
			c0.2-0.2,0.4-0.4,0.7-0.5l3.4-2.1l5.6-3.8l6-4.5l2.1-4.3c0.4-0.9,1.2-1.6,2.1-2l26.5-12.2c0.2-0.1,0.4-0.2,0.6-0.2l11.5-3.2
			l-1.1-7.9c-0.1-0.9,0-1.8,0.4-2.6l3.3-6.6l2.2-18.9l0.9-5.8l-2.2-6.7c-0.4-1.2-0.3-2.6,0.4-3.7L1764.5,1401.4z"/>
	</g>
	<g>
		<polygon class="st1" points="1597.8,1566.2 1588.5,1580.7 1579.6,1599.2 1575.4,1621.3 1577,1640.2 1584.4,1659.5 1585.9,1678.6 
			1588.2,1678 1587.8,1674.1 1586.5,1660.2 1579.6,1640.9 1577.2,1624.4 1578,1610.5 1583.5,1592.6 1595.2,1575.1 1608,1557.2 
			1606.3,1556.6 		"/>
	</g>
	<g>
		<polygon class="st1" points="497.1,1058.2 493.8,1060 496,1063.9 500.3,1068.2 512.5,1068.9 514.9,1067.1 506.6,1063.9 		"/>
	</g>
	<g>
		<path class="st1" d="M544.2,1136.6c0,0,0,4.8,0,5.8c0,1.1,2,5,2,5l3.5,3.3l3.9-0.7l-3.3-5.2l-4.8-8.5L544.2,1136.6z"/>
	</g>
	<g>
		<polygon class="st1" points="556.4,1122.1 560.5,1123.6 562,1119.7 559.4,1114.9 552.2,1109.5 549.4,1109.9 549.4,1113.2 
			554.2,1119.5 		"/>
	</g>
	<g>
		<path class="st1" d="M406.8,661.3l4.4,11.3c0,0.1,0.1,0.2,0.1,0.2l3,9.6c0.2,0.5,0.2,1,0.2,1.6l-0.9,17.4c0,0.7-0.2,1.4-0.6,2
			l-4.3,7.4l-1.6,14.7c0,0.2-0.1,0.4-0.1,0.6l-2.2,8.5l4,8.7l7.2,11.9c0.1,0.1,0.2,0.3,0.2,0.4l6.1,13c0.1,0.2,0.1,0.3,0.2,0.5
			l3.5,10.9c0.2,0.6,0.2,1.2,0.2,1.8l-0.9,8.7c-0.1,0.7-0.3,1.4-0.7,2l-0.1,0.2v2.6l14.1,15.7c0.9,1,1.3,2.5,1.1,3.8l-1.3,6.5
			c0,0.1-0.1,0.2-0.1,0.4l-1.7,6.1c0,0.1,0,0.1-0.1,0.2l-1.5,4.5l0.4,20.3l4.9,8.8l4,5.3l5.7,1c1.6,0.3,2.9,1.4,3.4,2.9l2.6,7.4
			c0.3,0.9,0.3,1.9,0.1,2.8l-3,9.5c-0.3,0.9-0.8,1.6-1.5,2.2l-5.7,4.3c-0.6,0.5-1.4,0.8-2.1,0.9l-1.3,6.1l1,6l8.1,10.9
			c0.3,0.4,0.5,0.9,0.7,1.4l8.2,26.7l3.3,7.8l9,15.4l3.9,7c0.2,0.4,0.4,0.9,0.5,1.5l1,5.8l2.6,1.6c1.4,0.8,2.2,2.2,2.2,3.8v6.5
			c0,0.6-0.1,1.2-0.3,1.7l-2,4.9l-5.4,21.7l3.8,4.4l9.6,1.1c0.4,0,0.7,0.1,1.1,0.3l12.2,4.8c0.2,0.1,0.3,0.1,0.5,0.2l9.4,5.1h6.7
			c1.2,0,2.4,0.5,3.2,1.4l7.8,8.2c0.3,0.3,0.5,0.6,0.7,1l7,13l2.5,4.9l8.6,4.6l12.3,2.1c1.2,0.2,2.2,0.9,2.9,1.8l3.9,5.7
			c0.3,0.5,0.6,1,0.7,1.7l1.7,8.7c0.2,0.9,0.1,1.7-0.2,2.4l2.2,0.6l7,0.4c1.4,0.1,2.8,0.9,3.5,2.1l7.6,12.2l10.1,11
			c0.4,0.4,0.7,1,0.9,1.5l2,5.6l6.7,10.9c0.3,0.6,0.6,1.2,0.6,1.9l0.9,8.7c0,0.1,0,0.3,0,0.4v24.6l0.4,1.4l24,3.5l52.8,7.4l36.8,2.6
			l7.9-1l1.6-2.2l-1.9-0.1c-1.5,0-2.9-0.8-3.6-2.1l-3-4.7c-0.8-1.3-0.9-2.8-0.3-4.2l1.7-3.7l-0.1-15.5c0-1.6,0.8-3,2.2-3.8l5.5-3.3
			l5.7-5.4l1-11.5c0.1-0.5,0.2-1,0.4-1.5l4.4-9.4c0.2-0.4,0.4-0.8,0.8-1.1l5.2-5.7c0.4-0.4,0.8-0.7,1.2-0.9l10.9-5.8l-0.1-0.1
			c-0.2-0.2-0.4-0.5-0.6-0.7l-2.6-4.1c-0.3-0.5-0.5-1-0.6-1.6l-2.4-13.6l-7.4-13.4c-0.4-0.7-0.6-1.5-0.6-2.3l0.2-6l-5.1-7.5
			l-40.4-62.5l-52.1-77.1l-60.2-88.7l-34.2-52.6c-0.7-1-0.9-2.3-0.6-3.5l4.8-19.4l18.3-69.8l20.7-80.2l-29-7.8l-36.2-9.2
			c-0.1,0-0.2-0.1-0.3-0.1l-33.7-11l-20.2-5.5l-30.7-8c-0.1,0-0.2-0.1-0.3-0.1l-14.7-5l-2.6,7.8l-0.4,19.3c0,0.6-0.1,1.2-0.4,1.7
			l-13.9,31.7c-0.3,0.6-0.7,1.2-1.2,1.6l-7.2,6.1l-0.5,1.7c-0.4,1.2-1.2,2.3-2.4,2.8l-3,1.4l-3.2,9.3l-1.7,6.6l6.3,9.7
			C406.5,660.7,406.6,661,406.8,661.3z"/>
	</g>
	<g>
		<polygon class="st1" points="479.7,1060.2 481.4,1064.1 483,1067.4 491.6,1067.6 492.1,1064.1 488.6,1060 		"/>
	</g>
	<g>
		<path class="st1" d="M1020.7,1074.8l10.8-78.9l-61.7-9.2l-73.2-12.3l-85.4-16.1l-7.1,44.1c-0.2,0.9-0.6,1.8-1.2,2.4l-0.9,0.9
			l-4.4,6.7c-0.9,1.3-2.4,2.1-3.9,2l-6.8-0.3c-1.7-0.1-3.1-1.1-3.8-2.6l-2.3-5.1l-4.9-0.6c-1.2-0.1-2.2-0.7-2.9-1.6l-0.8-1l-0.7,0.5
			c-0.1,0.1-0.2,0.1-0.3,0.2l-2.9,1.5l-0.3,16.1c0,0.2,0,0.3,0,0.5l-0.6,4.4l-1.5,33.6c0,0.8-0.3,1.6-0.8,2.3l-3.4,5l-1.1,6.4
			l6.6,11.8c0.2,0.4,0.4,0.8,0.5,1.2l3.2,14.7l1,1.2l2,1.1c1.5,0.8,2.4,2.4,2.3,4.1l-0.3,6.2c-0.1,1.2-0.6,2.3-1.5,3.1l-4.3,3.7
			c-0.3,0.2-0.6,0.4-0.9,0.6l-8.6,4.3l-4.1,4.1l-3.4,8.4l-1.5,12.6c-0.1,1-0.6,2-1.3,2.7l-7.7,7.4c-0.5,0.5-1,0.8-1.7,1l-2.6,0.9
			l-0.2,12.5c0,0.4-0.1,0.7-0.2,1.1l-0.5,1.7l6.7,1c1.2,0.2,2.3,0.9,3,1.8c0.7,1,0.9,2.3,0.7,3.4l-1.5,7.4c-0.1,0.6-0.4,1.1-0.7,1.6
			l-4,5.8c-0.6,0.9-1.6,1.5-2.6,1.8l-9.1,2.2l-5.1,4.2l-0.2,0.9l49.6,28c0.1,0,0.1,0.1,0.2,0.1l32.6,20.4l39.4,22.9l44.6,26.6
			l32.1,6.3l63.3,6.8l6-29.5l10.1-73L1020.7,1074.8z"/>
	</g>
	<g>
		<path class="st1" d="M828.9,803.1l5.2-26.3l20.5-100l1.1-11.7l-13.9-3.4l-50.9-10.1l-56.4-12.1c-0.3-0.1-0.6-0.2-0.9-0.3
			l-34.9-7.6l-86.1-20.9l-20.1,79.9l-18.7,69.8l-3.9,15.7l32.2,48.3l61.1,90.9l52.2,78l38.9,61l0.7,0.8l1-29.4
			c0-0.4,0.1-0.8,0.2-1.2l1.3-4.1l1.1-18.2c0.1-1.1,0.5-2.1,1.2-2.8l3.5-3.6c0.1-0.1,0.3-0.3,0.4-0.4l2.5-2c0.6-0.5,1.3-0.8,2.1-0.9
			l5.5-0.9c1.1-0.2,2.3,0.1,3.3,0.8l3,2.1l6.4,1.2c1.5,0.3,2.8,1.3,3.3,2.7l1.5,3.7l2.2-5.1l6.5-44.5c0-0.1,0-0.1,0-0.2l5.3-27.4
			l9.5-42.3l8.4-44L828.9,803.1z"/>
	</g>
	<g>
		<path class="st1" d="M971.6,975.3l62,8.7l0.5-2.5l4.4-29.7l10.1-74.7l8.6-60.6l5.3-54.5l-17.7-1.8l-44.1-4.9l-21-2.5
			c-1.2-0.1-2.3-0.8-3-1.8c-0.7-1-1-2.2-0.8-3.4l6.2-35.4l3.4-24l-5.4-0.7l-22.6-3.7l-27.7-4.9l-32.2-5.5l-29.9-5.3l-2.1,10.7
			l-9.5,47l-10.1,54.9l-5.2,24l-5.8,36.4l-8.9,44.7l-8.6,40.9l-3.5,20.1l86.5,15.4L971.6,975.3z"/>
	</g>
	<g>
		<path class="st1" d="M1233.5,1007l85.7,8.5l42.9,2.2l10.6-165.7c-1.5-0.8-2.6-2.4-2.4-4.3l3.6-52.9l-81.9-7.8L1126,768.7
			l-51.2-6.2l-6.5,55.1l-8.6,60.3l-10.1,75.1l-4,29.7l-0.3,3l86.8,9.7L1233.5,1007z"/>
	</g>
	<g>
		<path class="st1" d="M1112,1311l-1.1-10.8c-0.1-1.3,0.3-2.6,1.2-3.5c0.9-0.9,2.2-1.4,3.5-1.4l23.2,1.4c0.1,0,0.1,0,0.2,0l79.2,8.2
			l71.9,3.6l4.9-55.7l10-150l3-52.1c0.1-1.3,0.7-2.4,1.7-3.2c1-0.8,2.3-1.1,3.5-0.9l0.2,0l0-20.4l-82.4-6.1c-0.1,0-0.1,0-0.2,0
			l-99.2-11.9l-88.2-10.5l-10.7,78.3l-18.7,142.9l-10.1,72.4l-4.8,31.3l32.6,4.2l2.9-22.5c0.2-1.2,0.8-2.3,1.7-3
			c1-0.7,2.2-1,3.3-0.9l44.7,7L1112,1311z"/>
	</g>
	<g>
		<path class="st1" d="M454.5,554.3l31,8.8l21.3,6.9l33.2,9.7l71.1,19.2c1,0.3,1.7,0.8,2.3,1.5v0l117.5,27.9l10.7-44.7l12.6-48.1
			l2.8-11.3c0.1-0.2,0.1-0.4,0.2-0.6l5.1-12.1l-3.1-0.1c-1.4,0-2.6-0.7-3.4-1.7l-3.4-4.5c-0.9-1.2-1.2-2.6-0.7-4l1.1-3.6l1.3-8.4
			c0.1-0.8,0.4-1.5,0.9-2.1l12-14.7c0.3-0.4,0.7-0.7,1.2-1l4.4-2.7l2.1-2.1l3.6-8.8c0.1-0.3,0.3-0.6,0.5-0.9l10.9-15.2
			c0.1-0.2,0.2-0.3,0.4-0.4l8.5-9.2l0.3-5.3l-6.9-5.2c-0.8-0.6-1.4-1.4-1.6-2.4l-2.6-9.7l-33-9.3l-39.9-9.4l-40.9,0.3c0,0,0,0,0,0
			c-1.7,0-3.2-0.9-3.9-2.4l-10.5,3.9c-0.7,0.2-1.4,0.3-2.1,0.2l-12-1.5c-0.7-0.1-1.3-0.3-1.9-0.7l-4.2-2.8l-1,0.6
			c-0.7,0.4-1.5,0.6-2.3,0.5l-12.6-0.6c-0.9,0-1.8-0.4-2.6-1l-4.1-3.3l-12.4-4.9l-1,0.1c-0.7,0.1-1.4,0-2.1-0.2l-9.1-3.1l-3.3,3.1
			c-0.9,0.8-2.1,1.3-3.3,1.2l-16.6-0.9c-0.8,0-1.6-0.3-2.3-0.8l-16-11c-1-0.7-1.7-1.8-1.9-3.1c-0.2-1.2,0.2-2.5,1-3.5l0.8-1l0.5-18
			l-4.4-7.5l-8.9-1.2c-1.8-0.2-3.2-1.5-3.7-3.2l-1.1-4.1l-2.4-0.5l-12.4,4.4l-5.4,15.4l-8.7,26.8c-0.1,0.2-0.1,0.4-0.2,0.6
			l-8.6,17.1l-13.4,37.5c-0.1,0.2-0.1,0.3-0.2,0.4l-17.4,36.5c-0.1,0.2-0.2,0.3-0.3,0.5l-21.7,33.9l-4.6,7l-2.1,21.9
			c0,0.2,0,0.4-0.1,0.5l-3,14.1l5.2,6.8L454.5,554.3z"/>
	</g>
	<g>
		<path class="st1" d="M1323.4,482.1l148.3,9.8l147.3,4.6l-0.7-14.8l-5.2-19.2c-0.1-0.2-0.1-0.4-0.1-0.6l-4.9-36.7
			c0-0.1,0-0.2,0-0.4l-1.2-25.2l-4.7-7.3c-0.2-0.4-0.4-0.7-0.5-1.1l-4.3-14.4c-0.1-0.4-0.2-0.8-0.2-1.3v-27.6c0-0.3,0-0.5,0.1-0.8
			l1.6-9.2l-4.2-10.8l-73.4-1.5l-50-1.7l-71.3-3.5l-62.8-4.7l-3,33.9l-9.7,107.5L1323.4,482.1z"/>
	</g>
	<g>
		<path class="st1" d="M1611.2,515.3l4.6-3.1l2.8-3.4l0.1-1.3l-149.5-4.2h-0.2l-146.8-10.2l-1.5,10l-4.3,42.5l-3.6,48.1l-4,61.6
			l38.6,2.5l52.7,3.1l48.4,3.5l63.5,3.5l28.6-2.1c1.1-0.1,2.2,0.3,3.1,1l7.6,6l11.5,7.9c0.1,0.1,0.1,0.1,0.2,0.1l0.9,0.7l7.4-1.9
			c0.2-0.1,0.5-0.1,0.8-0.1l10.9-0.8h0.2l7.4-0.2c0.6,0,1.2,0.1,1.7,0.3l8.2,3.2l12.1,3.8c0.3,0.1,0.6,0.2,0.8,0.4l4.1,2.3l4.3-8.7
			l2.2-11.7l-4.8-3.9c-0.9-0.7-1.5-1.8-1.7-3l-0.8-7.4c-0.1-0.4,0-0.9,0.1-1.3l1.6-8.1c0.3-1.5,1.4-2.8,2.8-3.3l3-1.1l0.6-12.4
			l-0.2-80.2l-1.3-6.1l-9.9-8.7c-0.4-0.4-0.8-0.9-1.1-1.4l-2.6-5.3c-0.3-0.6-0.5-1.3-0.5-2V519
			C1609.2,517.5,1610,516.1,1611.2,515.3z"/>
	</g>
	<g>
		<path class="st1" d="M1297.2,776.8l85.2,7c2.4,0.2,4.2,2.3,4.1,4.6l-2.6,52.8l52.5,2.4l226.3,4.9h3.8l-1-1.1
			c-0.1-0.2-0.3-0.3-0.4-0.5l-6.3-10c-0.4-0.6-0.6-1.4-0.7-2.2l-0.2-4.7l-3.2-6.3c-1-2-0.4-4.5,1.5-5.7l-2.4-6.5
			c-1.9-0.4-3.4-1.9-3.6-4l-1.4-16.9l-3.7-11c-0.1-0.3-0.2-0.6-0.2-0.9l-1.3-12.4l-5.3-9.5c-0.2-0.3-0.3-0.7-0.4-1l-3.3-12.3
			l-7.3-21.4c-0.1-0.2-0.1-0.4-0.2-0.6l-2-10.5h-3.4c-1.7,0-3.3-1-4.1-2.6l-2.5-5.5c-0.1-0.2-0.2-0.4-0.2-0.6l-0.7-2.5l-6-3.2
			l-13.1-4.2c-0.5-0.2-0.9-0.4-1.3-0.7l-3.6-2.7l-5.7,0.5l-9.9,1.2l-11.3,3.6c-1.4,0.5-3,0.2-4.1-0.8l-2.9-2.3l-12.7-7.8
			c-0.4-0.2-0.7-0.5-1-0.8l-4.1-4.6l-26.8,1.1h-0.4l-63.9-3.1l-48-3.1l-54-3.1l-37.5-2.5L1297.2,776.8z"/>
	</g>
	<g>
		<path class="st1" d="M1660.9,650.8h-32.6l-1,2.7l0.7,4.5l5.9,4.5c1.4,1,2.1,2.9,1.7,4.6l-3.7,15.4c-0.1,0.2-0.1,0.5-0.2,0.7
			l-4.1,9.6l3.2,5.4l3.6,5.7c0.3,0.4,0.5,0.9,0.6,1.5l3,14.1l7.3,20c0.1,0.2,0.1,0.5,0.2,0.7l2.3,12.1l5.7,9.1
			c0.3,0.6,0.6,1.2,0.6,1.8l1.8,13.6l4.1,10.6c0.2,0.5,0.3,1,0.3,1.5l0.6,17.1l3,8.1h0.1c0.1,0,0.2,0,0.3,0l25.2-0.6l35-0.6
			l67.2-1.8l27.2-1.5l22.2-2.1c1.7-0.2,3.4,0.7,4.3,2.2l3.8,6.7l0.7,0.8c0-0.1,0-0.1,0-0.2l1.2-4c0.3-0.9,0.8-1.6,1.5-2.2l4.6-3.7
			c0.4-0.4,0.9-0.6,1.5-0.8l0.9-0.3v-3.5c0-0.4,0.1-0.9,0.2-1.3l1.2-4c0.3-0.9,0.9-1.7,1.6-2.3l4-3v-5.7l-3.3-3.3
			c-0.4-0.4-0.7-0.9-1-1.4l-1.5-3.7c-0.4-1-0.5-2.2-0.1-3.2l2.1-6l1.8-6c0.4-1.5,1.6-2.6,3.1-3l14.6-3.9l3.8-1.3l4.1-3l1.7-5.9
			c0.1-0.2,0.1-0.3,0.2-0.5l3.9-9.3l1.7-6.1l-1-3.3l-9.4-7.8c-0.7-0.6-1.2-1.4-1.5-2.3l-0.6-2.4l-1.8-2l-5.4-2.7
			c-1.4-0.7-2.3-2-2.5-3.6l-0.4-4.2l-1.8-3l-4.2-0.4c-0.7-0.1-1.3-0.3-1.9-0.6l-8-4.9c-0.6-0.3-1-0.8-1.4-1.4l-6.8-10.4
			c-0.4-0.6-0.6-1.2-0.7-1.9l-1.2-11.3c-0.1-1,0.1-2.1,0.7-3l3.4-5.1l-4.6-6.5l-3.6-5.4l-50.9,1.8L1660.9,650.8z"/>
	</g>
	<g>
		<path class="st1" d="M2019.6,1321.5c0-0.2-0.1-0.5-0.1-0.7l0.4-37.8l2.2-83.4l-0.4-44.6v-12.5l-7.7,0.4l-64.6,5.2
			c-0.1,0-0.2,0-0.3,0l-19,0.2l-0.1,4.9c-0.1,1.7-1.1,3.3-2.7,4l-5.9,2.5l-5.6,10.7l0.8,1.7c0.3,0.6,0.5,1.3,0.5,2v6.8
			c0,1.9-1.2,3.6-3,4.2l-6,2l-7.7,11.1l1.1,3.4c0.6,1.7,0.1,3.5-1.2,4.7l-6.8,6.3l-2.2,15c0,0.1,0,0.3-0.1,0.4l-0.7,3l2.6,3.9
			c1.2,1.8,0.9,4.1-0.6,5.6l-1.5,1.5l2.4,5.2c0.2,0.5,0.4,1,0.4,1.5l1.1,11.7c0.1,0.9-0.1,1.7-0.5,2.5l-3.1,6.1l0.7,12.3l5.2,11.5
			c0.3,0.7,0.5,1.6,0.4,2.4l-0.3,2.4l4.2,3.4c1.3,1,1.9,2.8,1.6,4.4l-1.8,8.6c-0.2,0.9-0.6,1.6-1.2,2.2l0.3,0.6
			c0.6,1.3,0.5,2.8-0.2,4l-14.1,24.6l-8.7,15.7l-1.7,19.7l0.1,0.2l61.5-1.7l21.9-1.8l4.8-0.6c1.6-0.2,3.2,0.5,4.1,1.7l1.8,2.5
			c0.7,1,1,2.2,0.8,3.3l-2.7,17.9l7.5,7c0.6,0.6,1,1.2,1.2,2l3,10.2l0.2,0.3l4.8-7.8c1.2-1.9,3.6-2.6,5.6-1.7l3.3,1.5l16.7-4.8
			c0.6-0.2,1.3-0.2,1.9-0.1l5.7,0.9c0.5,0.1,1,0.2,1.5,0.5l2.9,1.6h8.9l-3.8-39.8L2019.6,1321.5z"/>
	</g>
	<g>
		<path class="st1" d="M2151.3,879.9l-1.5-14.9l-11.4-98.9l-3.6-38.5l-10.6,1l-59,6.1c-0.1,0-0.2,0-0.3,0l-12.6,0.4l-6.2,3.5
			l-5.3,4.9c-0.5,0.5-1.1,0.8-1.8,1l-3,0.9c-1.2,0.4-2.6,0.1-3.7-0.6l-3.3-2.2l-1.4-0.4l9,109.3l1.3,18.7c0,0.3,0,0.6,0,0.9
			l-2.1,14.2l0.7,7.1l4.2,6.5c0.4,0.6,0.6,1.3,0.7,2l1.3,15.6c0.1,0.9-0.1,1.9-0.6,2.7l-6.8,11.1l-4.7,10.2
			c-0.1,0.3-0.3,0.6-0.5,0.9l-5.3,6.8l-1.1,10.6l1.1-0.6c0.4-0.2,0.9-0.4,1.3-0.5l15-2.6c0.1,0,0.2,0,0.3,0l12-1.3
			c1.4-0.1,2.8,0.4,3.8,1.4l2.8,3.1l1.9-3.7c0.5-0.9,1.3-1.7,2.3-2.1l8.7-3.6c1.4-0.6,3-0.4,4.2,0.4l2.9,2l0-0.2
			c-0.1-1.7,0.8-3.3,2.3-4.1l7.2-4c0.1,0,0.1-0.1,0.2-0.1l6.7-3.4c1.7-0.9,3.8-0.5,5.2,0.9l3,3h4l0.1-0.2l-0.7-5.3
			c-0.1-1.1,0.1-2.2,0.8-3.1l7.5-10.8c0.3-0.4,0.6-0.8,1-1.1l10.7-7.8l1.4-11.1c0.2-1.9,1.7-3.5,3.7-3.8l8.1-1.4l8.7-3.8l4.2-2.7
			l-2.5-3.7c-0.7-0.9-0.9-2.1-0.7-3.2L2151.3,879.9z"/>
	</g>
	<g>
		<path class="st1" d="M2026.8,869.8l-2.2-18.7c0-0.1,0-0.1,0-0.2l-2.9-42.4l-3.5-40.3l-2.5-30.8l-0.6-2l-2.2-6.9l-3.1-9l-3.7-4.1
			c-0.2-0.2-0.4-0.5-0.6-0.8l-3.9-6.9c-0.3-0.6-0.5-1.3-0.6-2l-0.4-9.9l-21.8,2.9c-0.1,0-0.2,0-0.3,0l-73.1,4.6h-0.5l-13.4-0.7
			c0.2,0.1,0.3,0.3,0.5,0.5l2.5,3.1c0.4,0.5,0.7,1.1,0.9,1.7l0.9,3.6l9.4,8.3c0.6,0.6,1.1,1.3,1.3,2.1l1.8,6.1
			c0.2,0.7,0.2,1.4,0.1,2.2l-1.8,9.2c-0.1,0.4-0.2,0.8-0.4,1.1l-4.7,9.4l-1.7,6.3c-0.2,0.9-0.8,1.7-1.5,2.3l-6.2,4.9
			c-0.4,0.3-0.8,0.5-1.2,0.7l-4.9,1.8c-0.1,0.1-0.3,0.1-0.4,0.1l-11.9,3.1l-1,2.8l-1.2,3.6l0.6,1.2l4.2,3.7c1,0.9,1.6,2.2,1.5,3.6
			l-0.6,11.1c-0.1,1.2-0.6,2.3-1.5,3.1l-4.2,3.6l-1.1,2.5v6.5c0,2-1.4,3.8-3.4,4.3l-4.1,1l-2.1,1.5l-0.2,1.3l0.5,4.9
			c0.2,1.5-0.5,3.1-1.7,4l-3.6,2.7l-2,5.3l1,8.4l5.7,18.3l18.6,19.2l14.3,9.6c1.3,0.9,2.1,2.4,2,3.9l-0.5,10.2l0.4,0.6l15,1.1
			c0.6,0,1.2,0.2,1.7,0.4l7.4,3.7c1.8,0.9,2.8,2.8,2.4,4.8l-1.8,9.8c0,0.3-0.1,0.5-0.2,0.8l-6,15.6l-1.4,6.6l4.9,8.3l15.6,12.9
			l11.1,1.7c1.5,0.2,2.9,1.3,3.5,2.7l5.4,13.1l5.3,8.2c0.7,1.1,0.9,2.5,0.5,3.7l-2,6.5l3.5,8.9l2.3,2.6l0.4-0.2l1.2-3.8
			c0.3-0.9,0.9-1.7,1.7-2.3l5.5-3.9c0.4-0.2,0.7-0.4,1.1-0.6l8.7-3c1-0.3,2-0.3,3,0.1l10.8,4.1l-1.4-3.6c-0.3-0.8-0.4-1.6-0.2-2.4
			l1.2-6.4c0.2-1.2,0.9-2.2,1.8-2.9l6.1-4.2c0.2-0.2,0.5-0.3,0.8-0.4l5.3-2.2l-1.9-5.4c-0.6-1.6-0.2-3.4,1-4.6l2.6-2.7l2-5.6v-8.9
			c0-0.1,0-0.2,0-0.2l0.7-13.1c0-0.9,0.4-1.7,0.9-2.5l6.1-8.1l4.6-9.7c0.1-0.2,0.2-0.4,0.3-0.6l6.1-9.1l-0.8-11.6l-4.9-8.6
			c-0.4-0.6-0.6-1.3-0.6-2.1l-0.3-9c0-0.2,0-0.5,0-0.7L2026.8,869.8z"/>
	</g>
	<g>
		<path class="st1" d="M1609.9,338.2l-1.8,10.1v26.5l4,12.5l4.7,8.9c0.3,0.6,0.5,1.2,0.5,1.9l1.2,26.2l4.9,35.8l4.9,19.4
			c0.1,0.3,0.1,0.6,0.1,0.9l1.2,22.7c0,0.2,0,0.4,0,0.6l-0.6,8.6c-0.1,1.1-0.5,2.1-1.3,2.8l-3.7,3.7c-0.1,0.1-0.3,0.2-0.4,0.4
			l-3.8,3v0.9l2,3.2l10.5,8.8c0.8,0.7,1.4,1.7,1.5,2.7l1.2,8c0,0.2,0,0.4,0.1,0.6l0.9,91.4l157.4-1.2l50.7-1.7l-0.4-8.7l-3.5-4
			l-18.6-13.2c-0.4-0.3-0.7-0.6-1-1l-9.1-12.5l-7.5-3.2c-0.5-0.2-0.9-0.5-1.2-0.8l-5.5-5h-6.3c-1.3,0-2.6-0.6-3.4-1.6l-9.2-11
			c-0.6-0.7-1-1.6-1-2.6l-1.2-19c0-0.2,0-0.4,0-0.6l0.6-9.8c0-0.5,0.1-0.9,0.3-1.3l2.6-6.8l-0.8-4.6l-6.2-9c-0.8-1.1-1-2.6-0.6-3.9
			l4.9-15.4c0.3-0.8,0.8-1.6,1.5-2.1l13.9-10.9l2.7-2.8l-0.6-19c0-0.2,0-0.3,0-0.5l0.6-8c0.1-1,0.5-1.9,1.1-2.6l7.6-8.5
			c0.2-0.2,0.4-0.4,0.6-0.6l10.3-7.9c0.6-0.5,1.4-0.8,2.2-0.9l1.8-0.2l11.1-12.2c0.4-0.5,0.9-0.8,1.5-1.1l3.5-1.6l5.4-9.2
			c0.1-0.1,0.1-0.2,0.2-0.3l6.5-9.5c0.2-0.3,0.5-0.6,0.8-0.9l8.3-7c0.3-0.3,0.7-0.5,1.1-0.7l12.8-5.4l22-9.7c-1.1-0.3-2.1-1-2.7-2
			l-3.4-6l-19.7,0.7l-1.4,1.2c-0.8,0.7-1.8,1-2.8,1h-2.6c-1.8,0-3.5-1.1-4.2-2.9l-1.2-3.3l-0.7-1.5l-2.2,0.4l-7.7,7.7
			c-0.3,0.3-0.7,0.6-1.2,0.8l-4.3,2.2c-0.6,0.3-1.3,0.5-2,0.5h-8.2c-0.5,0-1.1-0.1-1.6-0.3l-7-2.6c-1.7-0.7-2.9-2.3-2.9-4.2v-0.3
			c-0.8,0.1-1.6-0.1-2.3-0.5l-7-3.5c-1.3-0.6-2.2-1.8-2.4-3.3l-0.1-0.7c-0.9,0.4-1.9,0.6-2.9,0.4l-6.5-1.3c-0.3-0.1-0.7-0.2-1-0.3
			l-14.3-6.5c-0.2-0.1-0.4-0.2-0.6-0.3l-9.3-6.2h-6.5c-1,0-1.9-0.3-2.7-0.9l-1.7-1.3l-2.8,0.8l-1.4,1.4l-0.6,2.3
			c-0.5,2-2.3,3.4-4.3,3.4h-13c-2.5,0-4.4-2-4.4-4.4v-1.4l-12.7-0.6c-2-0.1-3.7-1.5-4.1-3.5l-0.1-0.4h-9.5c-1.2,0-2.3-0.5-3.1-1.3
			l-4.4-4.3c-0.6-0.6-1-1.3-1.2-2.1l-3.9-16.5c0-0.1-0.1-0.2-0.1-0.4l-1.8-12.3l-2.5-1l-2.2-0.5l-0.7,17.7c-0.1,2.4-2,4.3-4.4,4.3
			l-74.8-0.1l2.9,8.8C1610,336.7,1610.1,337.4,1609.9,338.2z"/>
	</g>
	<g>
		<path class="st1" d="M1788.1,543.7v9.1l1.1,16l5.5,5.5h7.4c1.6,0,3.1,0.9,3.9,2.2l3.8,6.7l7,0.9c1.3,0.2,2.4,0.9,3.1,1.9l9.9,14.5
			l18.2,10.5c0.5,0.3,1,0.7,1.3,1.2l5.5,7.4c0.5,0.6,0.8,1.4,0.9,2.1l2.4,19.8l1.4,7l4.7,3.3c1,0.7,1.6,1.7,1.8,2.9l0.6,3.7
			c0.2,1,0,2.1-0.6,3l-4.8,8l0.4,6.1l5.4,8.4l5,2.3l7.4,1.1c1,0.1,1.8,0.6,2.5,1.3l2.3,2.4h22.6l69.7-4l23.5-3.2l0.4-3.5l-4-11.2
			c-0.1-0.3-0.2-0.7-0.2-1l-1.7-15.8l-2.7-5.8c-0.5-1-0.6-2.2-0.2-3.2l2.6-8.2l2.1-7.7c0.1-0.3,0.2-0.7,0.4-1l3.1-5.5l-3.2-17.1
			c-0.1-0.6-0.1-1.3,0.1-2l1.3-4.8c0.1-0.6,0.4-1.1,0.8-1.6l4.3-5.4l0.3-4.6l-1.4-2.3c-0.6-1-0.8-2.3-0.5-3.4l1.7-6.7l1.3-8.5
			c0.1-0.4,0.2-0.9,0.4-1.3l7.3-15.1l2.3-5.3l-0.6,0.9l-7.4,10.9c-0.2,0.3-0.4,0.6-0.7,0.8l-4.4,4l-1.8,5c-0.4,1-1.1,1.9-2,2.4
			l-2.8,1.6l-2.4,4.1c-1,1.7-2.9,2.5-4.8,2.1l-3.9-0.9c-1.9-0.4-3.3-2-3.5-3.9l-0.4-4.8c-0.1-0.9,0.1-1.7,0.5-2.5l3.4-6.4l5.6-12.4
			c0.2-0.6,0.6-1.1,1-1.5l4.1-3.8l0.8-1.6l-0.7-0.4c-0.4-0.2-0.7-0.4-1-0.7l-3.7-3.7c-0.7-0.7-1.1-1.5-1.2-2.5l-3.9-24.9l-7.2-2.2
			c-1-0.3-1.9-1-2.5-2l-2.7-4.5l-31.9-7c-0.3-0.1-0.6-0.2-0.9-0.3l-6.5-2.9l-21.5-6l-21.8-3c-1.2-0.2-2.2-0.8-2.9-1.7l-7.5-9.7
			c-0.7,0.3-1.5,0.4-2.2,0.2l-3-0.4c-1.4-0.2-2.5-1-3.2-2.2l-0.8-1.5l-4.7-1.4l-1.3,0.2l-4.1,2.2c-1.4,0.8-3.2,0.7-4.6-0.2l-2.6-1.7
			c-1.7-1.1-2.4-3.2-1.8-5.1l1.7-5.2c0.1-0.3,0.3-0.7,0.5-1l4.5-7.2l-1.3,0.5l-7.4,4.9c-0.2,0.1-0.4,0.3-0.7,0.4l-20,8.7
			c-0.2,0.1-0.5,0.2-0.8,0.3l-7.8,1.7c-0.6,0.1-1.1,0.1-1.7,0l-7.8-1.3c-0.4-0.1-0.8-0.2-1.1-0.3l-2.2,2.9l-0.5,5.9v22.5
			c0,0.9-0.3,1.8-0.8,2.6l-3.1,4.3c-0.3,0.4-0.6,0.7-1,1l-13.1,9.7l-4.4,11.5l5.4,4.4c0.8,0.6,1.3,1.5,1.5,2.5l1.8,8.6
			c0.2,1.1,0.1,2.2-0.5,3.1L1788.1,543.7z"/>
	</g>
	<g>
		<polygon class="st1" points="1955.4,1046.5 1953.9,1046.7 1955.2,1046.7 		"/>
	</g>
	<g>
		<path class="st1" d="M1717.5,1044.7l0.9,10.2l58.8-0.3l62.2-1.8l55.8-2.2l31.4-0.6c1.5,0,3,0.8,3.8,2.1l5.8,9.2
			c0.6,1,0.8,2.2,0.6,3.3l-1.8,8.9c-0.2,1-0.8,2-1.6,2.6l-5.2,4.1l6.9,0.6l7.2-1.3l3.7-11.8l1.7-15.3c0.1-1.1,0.7-2.1,1.5-2.9
			l0.3-0.2c0.4-1.8,1.9-3.2,3.8-3.4h0.1l6.6-5.8c0.3-0.2,0.6-0.4,0.9-0.6l3.2-1.6l0.2-5.1c0-0.4,0.1-0.8,0.2-1.2l0.9-2.7l-0.4-0.6
			l-4.7,0.2c-1.4,0.1-2.8-0.5-3.7-1.6l-5.8-7.1c-0.4-0.4-0.6-0.9-0.8-1.5l-3.7-11.4c-0.3-0.9-0.3-1.8,0-2.7l1.6-4.9l-4.3-7.5
			c-0.1-0.2-0.2-0.4-0.3-0.6l-4-10l-10.4-1.7c-0.7-0.1-1.5-0.4-2-0.9l-18.7-15c-0.6-0.5-1-1.1-1.3-1.7l-4.6-11.1
			c-0.4-0.9-0.4-1.9-0.2-2.8l2.2-8.6c0-0.1,0.1-0.2,0.1-0.3l5.4-15.9l0.7-4.2l-1.7-0.9l-17.6-2c-1.4-0.2-2.6-0.9-3.3-2.1l-2.8-4.6
			c-0.4-0.7-0.6-1.4-0.6-2.2l-0.2-9l-12.7-7.9c-0.3-0.2-0.7-0.5-0.9-0.8l-18.7-20.9c-0.4-0.5-0.7-1-0.9-1.7l-6.1-19.6
			c-0.1-0.4-0.2-0.7-0.2-1.1l-0.6-11.4c0-0.6,0.1-1.2,0.2-1.7l1.3-3.8l-5.2-6.4c-0.2-0.2-0.4-0.5-0.5-0.8l-1.7-3.4l-17.9,1.6
			c-0.1,0-0.1,0-0.2,0l-26.4,1.2l-68.2,2.5l-56.7,0.9l0.3,0.6c0.4,0.7,0.5,1.6,0.4,2.4l-0.5,4.6l5.8,9l7.9,10.6l6.9,6.1l4.7,0.5
			c0.7,0.1,1.4,0.3,2,0.7l3.7,2.5c1.2,0.8,2,2.2,2,3.7v8c0,1.3-0.6,2.5-1.5,3.3l-3.8,3.3l-0.6,3l4.5,7.4l6.2,7.3l6.3,4.6
			c1,0.7,1.7,1.8,1.8,3.1l3.7,31.3c0,0.2,0,0.4,0,0.6l-1.8,94.7L1717.5,1044.7z"/>
	</g>
	<g>
		<path class="st1" d="M1925,1113l9.3-5.5l1-3.7l3.7-13l-3.2,0.8c-0.4,0.1-0.9,0.1-1.4,0.1l-16.6-1.2c-1.3-0.1-2.5-0.7-3.3-1.8
			c-0.8-1-1-2.4-0.7-3.6l1.8-8c0.2-0.9,0.7-1.8,1.4-2.4l7.4-6.4l0.6-2.9l-2.6-4.3l-26.9,1.1l-55.9,2.5l-62.7,1.8l-57.2,1.1l3,13.1
			c0.1,0.3,0.1,0.7,0.1,1v21.8l3.6,29.2c0,0.2,0,0.4,0,0.5l0.6,99.6l2.4,2.1l5.4-2.5c0.6-0.3,1.2-0.4,1.8-0.4c0.6,0,1.2,0.1,1.7,0.3
			l7.4,3.1c1.6,0.7,2.7,2.2,2.7,3.9l1,23.4l57.2-0.4l50.5-2.2l24.7-0.5l1.2-2.2l-0.6-7.1l-4.3-7.1c-1.1-1.8-0.8-4.1,0.7-5.6l1.6-1.5
			l-2.3-3.6c-0.7-1-0.9-2.3-0.6-3.6l1.8-6.7l3.6-15c0.2-0.9,0.7-1.8,1.5-2.4l4.5-3.7l-1-3.3c-0.4-1.3-0.2-2.7,0.6-3.8l9.8-14.4
			c0.4-0.6,1-1.1,1.7-1.5l4.7-2.3l-0.1-0.8l-0.9-4.7c-0.2-1,0-2,0.4-2.8l7.7-15c0.4-0.8,1.1-1.5,1.9-1.9l4.4-2.3l0.8-6.9
			c0.1-1.3,0.8-2.4,1.9-3.1l3.3-2.3l1.7-8.5l-3.2-9.7C1922.4,1116.2,1923.2,1114.1,1925,1113z"/>
	</g>
	<g>
		<path class="st1" d="M1558.2,1216.8l4.3-4.3c1.2-1.2,3.1-1.6,4.7-1l4.2,1.6h6c1.9,0,3.5,1.2,4.2,2.9l1.8,4.8l9.2,3.5l0.5-0.3
			l4.3-9.6c0.7-1.6,2.3-2.6,4.1-2.6h3.1c1.6,0,3.1,0.9,3.9,2.3l2,3.6l8.9,1.5c0.3,0.1,0.6,0.1,0.8,0.2l9.7,3.6l6.2,1.9l1.5-0.8
			l1.3-4.8c0.5-1.9,2.3-3.3,4.3-3.3h11.7c0.6,0,1.2,0.1,1.8,0.4l3.1,1.4l5.3-4c0.8-0.6,1.7-0.9,2.7-0.9h3.1c1.8,0,3.4,1.1,4.1,2.7
			l0.7,1.6h6l3-3.8c1.1-1.4,2.9-2,4.6-1.6l4.9,1.2c0.9,0.2,1.7,0.8,2.3,1.5l5,6.1l7.4,4.2l7.6,2.2l-1-92.2l-3.7-29.2
			c0-0.1,0-0.3,0-0.5l-0.4-23.4l-3.8-17.1c0-0.1-0.1-0.3-0.1-0.5l-2.1-19.3c0-0.1,0-0.3,0-0.4l-0.1-5.8l-28.1,0.7l-124.8-1.2
			l-121.2-5.5l-65.3-3.7l-28.7-1.2l-12.2-0.9l-1.3,19.6l54.6,3.5l86,3.5c1.2,0.1,2.4,0.6,3.2,1.5c0.8,0.9,1.2,2.1,1.1,3.3l-6.3,65.4
			l-1.2,47.4l0.3,2.3l10,8.5l1.9,1l0.6-1.8c0.5-1.6,1.9-2.7,3.5-3c1.6-0.2,3.3,0.4,4.3,1.7l1.6,2.1c0.4-0.8,1-1.5,1.7-2
			c1.3-0.8,3-0.9,4.3-0.2l7.4,3.7c1.7,0.8,2.6,2.6,2.4,4.5l-0.7,5.8l6.3,0.3c0.6,0,1.1,0.2,1.6,0.4l6.2,2.8l10.5,1.7
			c0.7,0.1,1.3,0.4,1.9,0.8l3.8,2.8l3.5-3.1c1-0.9,2.5-1.3,3.8-1l9.2,1.8c1.1,0.2,2.1,0.8,2.7,1.7l5.4,7.4h0.2c2.5,0,4.4,2,4.4,4.4
			v2.8L1558.2,1216.8z"/>
	</g>
	<g>
		<path class="st1" d="M1686.3,876.2c0.2-1,0.7-1.9,1.4-2.6l3.4-3v-1.8l-0.2-0.2l-5.6-0.5c-1-0.1-2-0.5-2.8-1.3l-7.4-7.4h-11.9
			l-118.6-1.2l-108.8-3.7l-54.3-2l-10.6,165.1l61.7,3.1l119.7,5.5l123.6,1.2l29.6-0.5l1.8-89.5l-2.6-27.9l-5.3-4.2
			c-0.3-0.2-0.5-0.4-0.7-0.7l-6.8-8.4c-0.1-0.1-0.2-0.3-0.3-0.4l-6-9.6c-0.6-0.9-0.8-2-0.6-3.1L1686.3,876.2z"/>
	</g>
	<g>
		<path class="st1" d="M1969.8,1465.5l3-7.4c0.3-0.7,0.8-1.4,1.4-1.8v-1.2c0-1.4,0.7-2.7,1.7-3.5l-8.1-1.7c-1.3-0.3-2.4-1.1-3-2.2
			l-2.6-4.8c-0.9-1.7-0.7-3.7,0.6-5.1l4.8-5.2c0.1-0.1,0.2-0.2,0.3-0.3l3-2.6l-2.5-6.2l-2.8-7.5l-8.3-8.9c-0.9-1-1.4-2.3-1.2-3.6
			l2-15.1l-20.5,2.3c-0.1,0-0.3,0-0.4,0l-67.2,1.2h-0.1c-2,0-3.7-1.3-4.3-3.2l-1.8-6.4c-0.2-0.6-0.2-1.1-0.1-1.7l2.5-22.7
			c0.1-0.6,0.2-1.2,0.5-1.7l8.9-16l12.7-21.9l-1.1-4.7c-0.5-2,0.4-4,2.2-4.9l1.6-0.9l0.2-0.7l-4.2-3.8c-0.9-0.8-1.4-1.9-1.5-3
			l-0.2-4.5l-4.6-11c-0.2-0.4-0.3-0.9-0.3-1.4l-0.9-11.8l-22,0.2l-51.4,2.5c-0.1,0-0.1,0-0.2,0l-55.2,0.1l0.1,21.1l1.8,24.8l1.7,9.4
			l6.3,10.3c0.3,0.5,0.5,1,0.6,1.5l2.3,12.4l11,13.9c0.6,0.7,0.9,1.6,0.9,2.5l0.5,6.9l0.7,0.7c0.9,0.9,1.4,2.2,1.3,3.5l-1.8,22.7
			c-0.1,0.7-0.2,1.3-0.6,1.9l-6.4,10.9l2.4,3.1c0.9,1.1,1.2,2.5,0.8,3.9l-1.7,6.4l-1.8,19.3c0,0.5-0.1,0.9-0.3,1.3l-3.3,7.7l0.1,2.8
			l7-2.3c0.4-0.1,0.8-0.2,1.2-0.2l21.7-0.9c0.6,0,1.1,0.1,1.6,0.2l27.5,9.4l15.8,2.8l4.4-1.7c-1.4-0.9-2.1-2.6-1.9-4.2
			c0.2-1.5,1.1-6.6,5.5-7.7c1.1-0.3,5.5-1.7,7.9-2.5c1.4-0.5,3-0.2,4.2,0.8l2.5,2l2.2-1.2c0.9-0.5,2-0.7,3-0.4l8.7,1.7
			c1.2,0.2,2.3,1,2.9,2.1l3.9,6.5c0.3,0.5,0.5,1.1,0.6,1.7l0.4,2.5l8.6,0.6c1,0.1,2.1,0.5,2.8,1.3l4.8,4.8c1.4,1.4,1.7,3.4,0.8,5.1
			l-2.2,4.4c-0.1,0.3-0.3,0.6-0.5,0.8l20.1,8.5l6-2.2l1.9-4.7c0.5-1.3,1.7-2.3,3.1-2.7l6-1.5l4-3.3c1.6-1.3,3.8-1.4,5.5-0.1l3.5,2.6
			c0.8,0.6,1.4,1.4,1.6,2.4l1.1,3.8l1.5-2.2c-0.5-0.4-0.9-0.9-1.2-1.4c-0.7-1.3-0.7-2.8,0-4l1.6-3.2l-0.3-2.6
			c-0.2-2.2,1.2-4.3,3.4-4.8l4.2-1l2.1-2.4c0.9-1,2.2-1.5,3.4-1.5c1.3,0,2.5,0.6,3.4,1.7l1.2,1.5
			C1969.4,1468.6,1969.2,1467,1969.8,1465.5z"/>
	</g>
	<g>
		<path class="st1" d="M1986.9,1447l-1.9-2.9c-0.4-0.6-0.6-1.2-0.7-1.9l-0.1-1.2l-1.4,1.5l-1.5,5.8c-0.2,0.9-0.7,1.7-1.4,2.3h5
			L1986.9,1447z"/>
	</g>
	<g>
		<path class="st1" d="M1996.4,1479.7l-14.4-2c-0.7-0.1-1.4-0.4-1.9-0.8l-8.7-6.1c-0.3-0.2-0.6-0.4-0.8-0.7l0.3,0.4
			c0.7,0.9,1,1.9,1,3c-0.1,1.3,0,2.7,0.1,3.8c3.2,0.4,7.7,1.3,9.4,1.6c0.4,0.1,0.7,0.2,1.1,0.4l10.9,5.2c0.7,0.3,1.3,0.9,1.8,1.5
			l1.3,1.9h5.4c0.8,0,1.6,0.2,2.3,0.6l1.3-1.8c-0.2-0.1-0.5-0.3-0.7-0.5L1996.4,1479.7z"/>
	</g>
	<g>
		<path class="st1" d="M2588,885.3l6.6-8.5l-5.9,2.3l0.1,2c0,0.5,0,0.9-0.1,1.4L2588,885.3z"/>
	</g>
	<g>
		<path class="st1" d="M2585.9,901c-0.1-0.3-0.1-0.7,0-1l0.9-9.7l-0.1,0.5c-0.1,0.2-0.1,0.3-0.2,0.5l-4.1,10.6l-1.1,13.2l1.6,5l4-11
			L2585.9,901z"/>
	</g>
	<g>
		<path class="st1" d="M2333.5,1000.9l99.9-14.1l150.1-32.4l-4.7-7.9l-12.3,3.6c-1.5,0.4-3.1,0-4.3-1l-4.2-4c-1-1-1.5-2.4-1.4-3.8
			c0.2-1.4,1-2.6,2.3-3.3l4-2.2l-0.4-2.3l-3.8-3.8c-0.7-0.7-1.2-1.7-1.3-2.8l-0.1-1.7l-4.4-3c-1.1-0.8-1.9-2-1.9-3.4l-0.2-4.3
			c-0.1-1.2,0.4-2.5,1.3-3.4c0.9-0.9,2.1-1.4,3.3-1.3h0.1c-0.2-0.7-0.2-1.5,0-2.2l0.6-2.4l-1.5-1.2c-1.2-0.9-1.8-2.4-1.6-3.9l1-10.9
			l-0.2-0.3l-6.7-0.8c-0.9-0.1-1.8-0.6-2.5-1.2l-4.8-4.7l-11.8-2.3c-0.2,0-0.4-0.1-0.5-0.1l-7.9-2.6l-10.7-3.9
			c-0.3-0.1-0.6-0.3-0.9-0.5l-1.8-1.2c-0.5-0.2-1-0.5-1.4-0.9l-2-1.3c-1-0.6-1.7-1.7-1.9-2.8l-1.3-6.5c-0.1-0.7-0.1-1.4,0.1-2.1
			l1.4-4.7c0.2-0.7,0.6-1.3,1.1-1.8l2.6-2.7l1.6-6.7l-1.5-2.1l-20.6-7.4c-2-0.7-3.3-2.8-2.9-5l0.6-3.3l-1.5-0.5
			c-0.4,7.6-1.7,8.9-2.5,9.7c-0.9,0.9-2.2,1.4-3.4,1.4c-0.6,0-1.2-0.1-1.8-0.4l-20.4-7.9l-0.1,7.2c0,0.6-0.1,1.2-0.4,1.7l-4,9
			c0,0.1-0.1,0.2-0.1,0.3l-3.4,6.3c-0.2,0.4-0.5,0.8-0.9,1.2l-6.2,5.6l-2.5,6.4c-0.5,1.4-1.8,2.5-3.3,2.8l-4.8,1l-4.5,17.6
			c-0.5,1.8-2.1,3.2-4,3.3l-10.6,0.8c-1.4,0.1-2.7-0.4-3.7-1.5l-2-2.2l-1.1,10c-0.1,0.4-0.2,0.9-0.3,1.3l-14.2,33
			c-0.1,0.1-0.1,0.2-0.2,0.4l-1.4,2.5l0.9,1.2c0.7,1,1,2.2,0.8,3.4l-0.9,5.6c-0.1,0.7-0.4,1.4-0.9,2l-7.6,9.9
			c-1.1,1.4-3,2.1-4.7,1.6l-2.7-0.7l-5.9,4.4c-1,0.7-2.3,1-3.6,0.8l-3.4-0.7l-3.6,8.8c-0.5,1.2-1.4,2.1-2.6,2.5l-10.5,3.8
			c-1.2,0.4-2.5,0.3-3.6-0.2l-4.6-2.5l-3.9,2.3c-0.1,0.1-0.3,0.1-0.4,0.2l-6.8,3.1c-0.9,0.4-2,0.5-2.9,0.3l-10.2-2.6
			c-0.9-0.2-1.7-0.7-2.2-1.4l-7.3-8.3l-24.8,27l-3.1,4.4l0,4.1c0,1.6-0.8,3.1-2.2,3.9l-4.9,2.8l3.4-0.4l22.5-2.6c0.1,0,0.2,0,0.4,0
			l18.3-0.6l5.8-4.3c0.8-0.6,1.9-0.9,2.9-0.9L2333.5,1000.9z"/>
	</g>
	<g>
		<polygon class="st1" points="2507.6,863.7 2507.7,863.9 2508,864 		"/>
	</g>
	<g>
		<path class="st1" d="M522.5,218.1l-0.9-1.7c0.3,1.1,0.6,2.6,0.9,4.3V218.1z"/>
	</g>
	<g>
		<path class="st1" d="M524.4,287.4c0.8,1.1,1.2,2.4,1.4,3.7l1.1-2.6L524.4,287.4z"/>
	</g>
	<g>
		<path class="st1" d="M524.6,313.5c1.2,0.2,2.6,0.4,3.9,0.5c0.4,0,0.8,0.1,1.2,0.1l-4.6-0.9L524.6,313.5z"/>
	</g>
	<g>
		<path class="st1" d="M532,273.6c-0.1,0.1-0.1,0.1-0.2,0.1L532,273.6L532,273.6z"/>
	</g>
	<g>
		<path class="st1" d="M532.8,314.6l-0.6-0.1c3.1,0.8,6,2.2,7.6,3.9l-0.3-2.1L532.8,314.6z"/>
	</g>
	<g>
		<path class="st1" d="M550.6,324.4c0.6,0.4,1.1,0.8,1.7,1.4l-0.7-1.2L550.6,324.4z"/>
	</g>
	<g>
		<path class="st1" d="M557.3,335.1l-0.5-1c0.2,0.6,0.4,1.1,0.5,1.7V335.1z"/>
	</g>
	<g>
		<path class="st1" d="M595.4,219v-0.8c-1.7,1.2-4.6,1.3-9,0.4l2.9,0.8L595.4,219z"/>
	</g>
	<g>
		<path class="st1" d="M588.4,366.6c3,0.2,6.2,0.6,9.7,1.3l-8.5-2.3L588.4,366.6z"/>
	</g>
	<g>
		<path class="st1" d="M604.9,369.4c1.8,0.5,3.5,1,5.3,1.6c0.8,0.3,1.6,0.5,2.4,0.8l-5.7-2.1L604.9,369.4z"/>
	</g>
	<g>
		<path class="st1" d="M611.6,236l1.3-0.1l0.4-3.5l-0.4-0.6C612.6,234.3,612.1,235.9,611.6,236z"/>
	</g>
	<g>
		<path class="st1" d="M614.6,195.9l-3-7l-1.6-3.2c0.9,3,1.7,8.6,2.3,14.9L614.6,195.9z"/>
	</g>
	<g>
		<path class="st1" d="M607.2,231.1l-3-6.5l-2.5-2.1c1.5,3.5,4,7.7,6.2,10.4L607.2,231.1z"/>
	</g>
	<g>
		<path class="st1" d="M540.5,319c-0.2-0.2-0.3-0.4-0.6-0.6l0.7,4.2l10.1,1.8c-0.8-0.5-1.5-0.7-2.3-0.7
			C545.8,323.7,542.3,321.6,540.5,319z"/>
	</g>
	<g>
		<path class="st1" d="M603,369.2l1.8,0.3c-2.2-0.6-4.5-1.1-6.7-1.5L603,369.2z"/>
	</g>
	<g>
		<path class="st1" d="M532.2,314.5c-0.8-0.2-1.7-0.4-2.5-0.5L532.2,314.5z"/>
	</g>
	<g>
		<path class="st1" d="M529.7,274c1,0,1.7-0.1,2-0.3L529.7,274z"/>
	</g>
	<g>
		<path class="st1" d="M552.3,325.9l4.5,8.2C555.6,330.7,554,327.7,552.3,325.9z"/>
	</g>
	<g>
		<path class="st1" d="M611.4,236.1c0,0,0.1,0,0.1,0L611.4,236.1C611.4,236.1,611.4,236.1,611.4,236.1z"/>
	</g>
	<g>
		<path class="st1" d="M524.2,312.4c0.6-0.1,1.1-0.1,1.7,0l4.7,0.9c0.8,0.1,1.6,0.3,2.4,0.4l0.6,0.1c0.1,0,0.2,0,0.3,0.1l6.8,1.7
			c1.7,0.4,3,1.9,3.3,3.6l0.1,0.9c1.2,1.6,3.4,2.7,4.2,2.8c1,0,2.3,0.2,3.8,0.9l0.3,0.1c1.3,0.2,2.5,1,3.1,2.2l0.4,0.8c0,0,0,0,0,0
			c2,2.3,3.7,5.5,5,9.1l0.3,0.5c0.4,0.7,0.5,1.4,0.5,2.1c1.5,5.2,2,10.9,1.3,15.8c-0.5,3.3,0.1,6,1.8,7.9c2.8,3.3,8.9,4.6,16.5,3.6
			c1.7-0.2,3.5-0.3,5.6-0.2c1.1-0.9,2.5-1.2,3.9-0.8l8.8,2.3c2,0.4,4,0.9,6.1,1.4l1.8,0.3c0.3,0.1,0.6,0.1,0.9,0.2l5.6,2
			c9.1,2.9,17.7,5.1,20.1,5.4c0.9,0.1,2.1,0.3,3.3,0.5l1.5-0.5c1.3-0.4,2.7-0.2,3.8,0.5l2.7,1.7c1.2,0.3,2.3,0.6,3.4,0.9
			c1.4,0.4,3.3,0.6,5.4,0.6c3.1,0,6.2-0.5,8.5-1.2c2.5-0.9,5.1-1.5,7.3-1.8l1.1-0.4c1.4-0.5,3-0.2,4.2,0.7c0.6,0.2,1.1,0.4,1.6,0.7
			c1.5,0.3,6.2,0.8,14.1,0.8c2,0,4.2,0,6.4-0.1c1.4,0,2.7-0.1,4.1-0.1c3.2,0,6.4,0.1,9.6,0.4l2.3-0.1c0.1,0,0.1,0,0.2,0
			c0.3,0,0.6,0,0.9,0.1l2.9,0.6c9.4,1.1,19.7,3.3,32.9,6.9l1.9,0.5c0.8,0.2,1.6,0.4,2.4,0.7l1.7,0.4c0.1,0,0.2,0.1,0.3,0.1l3.7,1.1
			c13.1,3.5,20.7,5.4,24.4,5.4c0.3,0,0.5,0,0.6,0c0.2-1,0.2-2.8,0.2-4.4v-0.6c0-12.9,21.2-113.4,29.5-139.7
			c2.1-6.6,3.5-11.7,4.3-14.8c-5.2-1.3-15.8-3.9-30.3-7.2c-34.2-7.9-130.2-33-163.1-42.6c-6.8-2-11.4-3-14.2-3.1
			c0.3,0.7,0.7,1.7,1.5,3.1c0.2,0.4,0.5,1,0.7,1.8l1.6,3.1c0,0.1,0.1,0.1,0.1,0.2l3,7c0.5,1.2,0.5,2.6-0.1,3.8l-1.8,3.6
			c0.9,10,1.2,21.5,0.6,29.1c0.3,0.7,0.4,1.5,0.3,2.3l-0.4,3.5c-0.2,2-1.9,3.6-3.9,3.9l-3.9,0.4c-2.1,0.2-4.1-1-4.7-3l-0.9-2.8
			c-2.2-2.8-4.1-6.2-5.6-9.4l-1.7-1.3c-0.3-0.2-0.5-0.5-0.7-0.7h-0.1l-6.1,0.4c-0.5,0.1-1,0-1.5-0.2l-2.7-0.8
			c-3.4-0.7-7.6-1.9-12.9-3.8c-22.2-7.8-30.8-12.6-39.6-22.1c-2.1-2.2-4-3.9-5.3-5c-2.3,5.3-4.1,18.3-2.5,21.1
			c0.2,0.4,0.4,0.9,0.6,1.4l0.8,1.4c0.4,0.7,0.6,1.4,0.6,2.2v2.4c0.9,6.4,1.1,15,0.9,20.9c-0.5,16.1,0.5,19.9,3.8,23.5
			c3.5,3.8,6,6.6,4.6,10c0,0.1,0,0.1,0,0.1c0,0,0,0.1,0,0.1c0,0,0,0,0,0c0,0,0,0,0,0c-0.5,1.3-1.6,2.3-2.9,2.7
			c-1.1,0.4-2.2,0.5-3.2,0.6l-2.3,0.3c-0.5,0.3-0.9,0.7-1,1.1c-0.4,0.9-0.5,2.4,0.5,3.8l1.4,0.6c2.2,1,3.2,3.5,2.3,5.7l-0.7,1.8
			c0.1,2.2-0.3,4.4-1.3,6.5c-1.8,3.9-5.1,6.2-8.9,6.4c0,0.6,0.2,1.7,1.1,3C521.6,311.6,522.7,312.1,524.2,312.4z"/>
	</g>
</g>
<g>
	<path class="st2" d="M1473.3,1363.6h23.7v5.3h-9.2v33.4h-5.2v-33.4h-9.2V1363.6z"/>
	<path class="st2" d="M1502.7,1363.6h5.8l8.7,14.1l8.6-14.1h5.9l-11.5,19l11.8,19.7h-5.9l-8.9-14.9l-9,14.9h-5.9l12-19.7
		L1502.7,1363.6z"/>
</g>
<g>
	<path class="st2" d="M548.5,1577.4l18.3,40.2h-5.5l-4.5-9.9h-16.4l-4.4,9.9h-5.5L548.5,1577.4z M548.5,1589.5l-6.2,13.8h12.5
		L548.5,1589.5z"/>
	<path class="st2" d="M572.8,1578.9h5.3v15.7l16.4-15.7h7.4l-18.7,18l18.8,20.7h-6.7l-17.2-18.9v18.9h-5.3V1578.9z"/>
</g>
<g>
	<path class="st2" d="M1116.1,1128.4l28.6,29.4V1130h5.3v40.5l-28.6-29.3v27.5h-5.3V1128.4z"/>
	<path class="st2" d="M1191.1,1128.4l10.6,40.3h-5.2l-6.4-24.6l-11,26.1l-11.1-26.3l-6.5,24.8h-5.2l10.6-40.3l12.1,28.8
		L1191.1,1128.4z"/>
</g>
<g>
	<path class="st2" d="M1542,1119.2c0-5.6,2.1-10.4,6.3-14.4c4.2-4,9.3-6,15.2-6c5.8,0,10.7,2,14.9,6c4.2,4,6.3,8.8,6.3,14.3
		c0,5.9-2.1,10.8-6.2,14.8c-4.1,4-9.2,6.1-15.2,6.1c-5.9,0-10.9-2-15.1-6.1C1544.1,1129.9,1542,1125,1542,1119.2z M1579.1,1119.5
		c0-4.3-1.5-7.9-4.6-10.8c-3.1-2.9-6.9-4.4-11.4-4.4c-4.3,0-7.9,1.5-11,4.5c-3,3-4.6,6.5-4.6,10.7c0,4.2,1.6,7.8,4.7,10.7
		c3.1,2.9,7,4.4,11.5,4.4c4.2,0,7.8-1.5,10.8-4.5C1577.6,1127.1,1579.1,1123.6,1579.1,1119.5z"/>
	<path class="st2" d="M1592.8,1100.1h5.3v15.7l16.4-15.7h7.4l-18.7,18l18.8,20.7h-6.7l-17.2-18.9v18.9h-5.3V1100.1z"/>
</g>
<g>
	<path class="st2" d="M1498.4,922.4h5.3v15.7l16.4-15.7h7.4l-18.7,18l18.8,20.7h-6.7l-17.2-18.9v18.9h-5.3V922.4z"/>
	<path class="st2" d="M1557.6,926.8l-4.3,3.4c-1.1-1.2-2.2-2.1-3.1-2.6c-0.9-0.6-2.2-0.9-4-0.9c-1.9,0-3.4,0.4-4.6,1.3
		c-1.2,0.9-1.8,2-1.8,3.3c0,1.2,0.5,2.2,1.5,3.1c1,0.9,2.8,1.9,5.3,2.9c2.5,1.1,4.4,2.1,5.8,3c1.4,0.9,2.5,1.9,3.4,3.1
		c0.9,1.1,1.6,2.3,2,3.5c0.4,1.2,0.7,2.5,0.7,3.9c0,3.2-1.2,6-3.5,8.2c-2.3,2.3-5.2,3.4-8.5,3.4c-3.2,0-6.1-0.9-8.6-2.7
		c-2.5-1.8-4.4-4.4-5.7-8l5.3-1.5c1.9,4.4,4.9,6.5,8.8,6.5c1.9,0,3.5-0.6,4.8-1.7c1.3-1.2,1.9-2.6,1.9-4.4c0-1.1-0.3-2.1-1-3.2
		c-0.7-1.1-1.5-1.9-2.5-2.6c-1-0.7-2.6-1.5-4.7-2.4c-2.2-0.9-3.8-1.7-5-2.4c-1.2-0.7-2.2-1.6-3-2.6c-0.9-1-1.5-2-1.9-3.1
		c-0.4-1-0.6-2.1-0.6-3.2c0-2.8,1.1-5.1,3.3-7.1c2.2-2,4.9-2.9,8.1-2.9c2.1,0,4.2,0.5,6.4,1.4
		C1554.3,923.5,1556.1,924.9,1557.6,926.8z"/>
</g>
<g>
	<path class="st2" d="M1199.1,869.5v6c-4.2-2-8-3.1-11.5-3.1c-4.5,0-8.3,1.5-11.4,4.4c-3.1,2.9-4.6,6.5-4.6,10.7
		c0,4.3,1.6,7.9,4.7,10.8c3.1,2.9,7.1,4.3,11.8,4.3c3.4,0,7.1-1.1,10.9-3.2v6c-3.5,1.9-7.3,2.8-11.4,2.8c-6,0-11.1-2-15.4-6.1
		c-4.3-4.1-6.4-8.9-6.4-14.7c0-5.6,2.1-10.4,6.3-14.4c4.2-4,9.2-6,15.1-6C1191.1,867,1195,867.8,1199.1,869.5z"/>
	<path class="st2" d="M1205,887.3c0-5.6,2.1-10.4,6.3-14.4c4.2-4,9.3-6,15.2-6c5.8,0,10.7,2,14.9,6c4.2,4,6.3,8.8,6.3,14.3
		c0,5.9-2.1,10.8-6.2,14.8s-9.2,6.1-15.2,6.1c-5.9,0-10.9-2-15.1-6.1C1207.1,898,1205,893.1,1205,887.3z M1242.1,887.5
		c0-4.3-1.5-7.9-4.6-10.8c-3.1-2.9-6.9-4.4-11.4-4.4c-4.3,0-7.9,1.5-11,4.5c-3,3-4.6,6.5-4.6,10.7c0,4.2,1.6,7.8,4.7,10.7
		c3.1,2.9,7,4.4,11.5,4.4c4.2,0,7.8-1.5,10.8-4.5C1240.5,895.2,1242.1,891.6,1242.1,887.5z"/>
</g>
<g>
	<path class="st2" d="M903.4,838h5.3v23.8c0,3.5,0.8,6.2,2.5,8.2c1.7,1.9,4.1,2.9,7.2,2.9c3.1,0,5.5-0.9,7.2-2.7
		c1.7-1.8,2.6-4.3,2.6-7.5V838h5.3v24.3c0,4.7-1.4,8.5-4.1,11.4c-2.7,2.8-6.3,4.3-10.8,4.3c-4.6,0-8.3-1.4-11-4.3
		c-2.8-2.9-4.1-7.1-4.1-12.7V838z"/>
	<path class="st2" d="M940.1,838h23.7v5.3h-9.2v33.4h-5.2v-33.4h-9.2V838z"/>
</g>
<g>
	<path class="st2" d="M869.8,1100.9l18.3,40.2h-5.5l-4.5-9.9h-16.4l-4.4,9.9h-5.5L869.8,1100.9z M869.8,1113l-6.2,13.8h12.5
		L869.8,1113z"/>
	<path class="st2" d="M893.1,1102.4h26.1l-18.5,33.5h18.1v5.2h-26.7l18.4-33.4h-17.5V1102.4z"/>
</g>
<g>
	<path d="M1168,1725h5.3v14.9h18.5V1725h5.2v38.7h-5.2v-18.6h-18.5v18.6h-5.3V1725z"/>
	<path d="M1206.5,1725h5.2v38.7h-5.2V1725z"/>
</g>
<g>
	<path class="st2" d="M681,752.8l28.6,29.4v-27.9h5.3v40.5l-28.6-29.3V793H681V752.8z"/>
	<path class="st2" d="M720.8,754.4h5.6l12.2,27.4l12.2-27.4h5.6l-17.9,40L720.8,754.4z"/>
</g>
<g>
	<path class="st2" d="M562.2,922.1v6c-4.2-2-8-3.1-11.5-3.1c-4.5,0-8.3,1.5-11.4,4.4c-3.1,2.9-4.6,6.5-4.6,10.7
		c0,4.3,1.6,7.9,4.7,10.8c3.1,2.9,7.1,4.3,11.8,4.3c3.4,0,7.1-1.1,10.9-3.2v6c-3.5,1.9-7.3,2.8-11.4,2.8c-6,0-11.1-2-15.4-6.1
		c-4.3-4.1-6.4-8.9-6.4-14.7c0-5.6,2.1-10.4,6.3-14.4c4.2-4,9.2-6,15.1-6C554.2,919.5,558.1,920.4,562.2,922.1z"/>
	<path class="st2" d="M584.1,919.2l18.3,40.2h-5.5l-4.5-9.9H576l-4.4,9.9H566L584.1,919.2z M584.1,931.3l-6.2,13.8h12.5L584.1,931.3
		z"/>
</g>
<g>
	<path class="st2" d="M2507.8,555.4l28.6,29.4v-27.9h5.3v40.5l-28.6-29.3v27.5h-5.3V555.4z"/>
	<path class="st2" d="M2548.5,556.9h5.9l9.5,15.6l9.4-15.6h5.9l-12.7,21v17.7h-5.3V578L2548.5,556.9z"/>
</g>
<g>
	<path class="st2" d="M2748,351.9l10.6,40.3h-5.2l-6.4-24.6l-11,26.1l-11.1-26.3l-6.5,24.8h-5.2l10.6-40.3l12.1,28.8L2748,351.9z"/>
	<path class="st2" d="M2764.9,353.5h21.4v5.3h-16.2v9.7h16.2v5.2h-16.2V387h16.2v5.2h-21.4V353.5z"/>
</g>
<g>
	<path class="st2" d="M1127.5,632l12.5,28.6l11.7-27h5.5l-17.2,39.9l-12.5-28.6l-12.5,28.6l-17.2-39.9h5.5l11.8,27.3L1127.5,632z"/>
	<path class="st2" d="M1161.6,633.5h5.8l9.5,15.6l9.4-15.6h5.9l-12.7,21v17.7h-5.3v-17.7L1161.6,633.5z"/>
</g>
<g>
	<path class="st2" d="M836.2,556.9h5.2v38.7h-5.2V556.9z"/>
	<path class="st2" d="M851.2,556.9h9.4c7.4,0,13,2,16.6,5.9c3.6,3.9,5.4,8.4,5.4,13.5c0,5.1-1.9,9.6-5.6,13.5
		c-3.7,3.9-9.2,5.9-16.3,5.9h-9.4V556.9z M856.5,562.1v28.3h0.3c3.9,0,6.9-0.2,8.9-0.5c2-0.4,3.9-1.1,5.7-2.3
		c1.8-1.2,3.2-2.8,4.3-4.8c1.1-2,1.6-4.1,1.6-6.5c0-3-0.8-5.7-2.5-8.1c-1.7-2.4-3.7-4-6-4.9c-2.3-0.8-5.5-1.2-9.4-1.2H856.5z"/>
</g>
<path class="st2" d="M585.1,495.4c0-5.6,2.1-10.4,6.3-14.4c4.2-4,9.3-6,15.2-6c5.8,0,10.7,2,14.9,6c4.2,4,6.3,8.8,6.3,14.3
	c0,5.9-2.1,10.8-6.2,14.8c-4.1,4-9.2,6.1-15.2,6.1c-5.9,0-10.9-2-15.1-6.1C587.2,506.1,585.1,501.2,585.1,495.4z M622.2,495.6
	c0-4.3-1.5-7.9-4.6-10.8c-3.1-2.9-6.9-4.4-11.4-4.4c-4.3,0-7.9,1.5-11,4.5c-3,3-4.6,6.5-4.6,10.7c0,4.2,1.6,7.8,4.7,10.7
	c3.1,2.9,7,4.4,11.5,4.4c4.2,0,7.8-1.5,10.8-4.5C620.6,503.3,622.2,499.8,622.2,495.6z"/>
<path class="st2" d="M636.7,476.3h8.4c4.2,0,7.6,1,10.2,3.1c2.6,2.1,3.9,4.7,3.9,8c0,2.6-0.8,4.9-2.5,6.9c-1.7,2-4.3,3.4-7.9,4.2
	L660,515h-6.1l-10.7-15.9H642V515h-5.3V476.3z M642,481v13.5c7.8,0.2,11.7-2.1,11.7-6.8c0-1.6-0.5-3-1.4-4c-0.9-1-2.1-1.8-3.6-2.1
	S645,481,642,481z"/>
<g>
	<path class="st2" d="M660.6,273l12.5,28.6l11.7-27h5.5l-17.2,39.9l-12.5-28.6l-12.5,28.6L631,274.6h5.5l11.8,27.3L660.6,273z"/>
	<path class="st2" d="M707.1,273l18.3,40.2h-5.5l-4.5-9.9H699l-4.4,9.9H689L707.1,273z M707.1,285.1l-6.2,13.8h12.5L707.1,285.1z"/>
</g>
<g>
	<path class="st2" d="M1135.3,380.8l10.6,40.3h-5.2l-6.4-24.6l-11,26.1l-11.1-26.3l-6.5,24.8h-5.2l10.6-40.3l12.1,28.8L1135.3,380.8
		z"/>
	<path class="st2" d="M1150.2,382.4h23.7v5.3h-9.2v33.4h-5.2v-33.4h-9.2V382.4z"/>
</g>
<g>
	<path class="st2" d="M1454.1,743.5l28.6,29.4V745h5.3v40.5l-28.6-29.3v27.5h-5.3V743.5z"/>
	<path class="st2" d="M1496.7,745h21.4v5.3h-16.2v9.7h16.2v5.2h-16.2v13.3h16.2v5.2h-21.4V745z"/>
</g>
<g>
	<path class="st2" d="M1721.9,706.1h5.2v38.7h-5.2V706.1z"/>
	<path class="st2" d="M1751.3,704.6l18.3,40.2h-5.5l-4.5-9.9h-16.4l-4.4,9.9h-5.5L1751.3,704.6z M1751.3,716.7l-6.2,13.8h12.5
		L1751.3,716.7z"/>
</g>
<g>
	<path class="st2" d="M1898,562.8l12.5,28.6l11.7-27h5.5l-17.1,39.9l-12.5-28.6l-12.5,28.6l-17.2-39.9h5.5l11.8,27.3L1898,562.8z"/>
	<path class="st2" d="M1934.4,564.3h5.2V603h-5.2V564.3z"/>
</g>
<g>
	<path class="st2" d="M2139.3,635.4l10.6,40.3h-5.2l-6.4-24.6l-11,26.1l-11.1-26.3l-6.5,24.8h-5.2l10.6-40.3l12.1,28.8L2139.3,635.4
		z"/>
	<path class="st2" d="M2156.5,637h5.2v38.7h-5.2V637z"/>
</g>
<g>
	<path class="st2" d="M1461.6,570l-4.3,3.4c-1.1-1.2-2.2-2.1-3.1-2.6c-0.9-0.6-2.2-0.9-4-0.9c-1.9,0-3.4,0.4-4.6,1.3
		c-1.2,0.9-1.8,2-1.8,3.3c0,1.2,0.5,2.2,1.5,3.1c1,0.9,2.8,1.9,5.3,2.9c2.5,1.1,4.4,2.1,5.8,3c1.4,0.9,2.5,1.9,3.4,3.1
		c0.9,1.1,1.6,2.3,2,3.5c0.4,1.2,0.7,2.5,0.7,3.9c0,3.2-1.2,6-3.5,8.2c-2.3,2.3-5.2,3.4-8.5,3.4c-3.2,0-6.1-0.9-8.6-2.7
		c-2.5-1.8-4.4-4.4-5.7-8l5.3-1.5c1.9,4.4,4.9,6.5,8.8,6.5c1.9,0,3.5-0.6,4.8-1.7c1.3-1.2,1.9-2.6,1.9-4.4c0-1.1-0.3-2.1-1-3.2
		c-0.7-1.1-1.5-1.9-2.5-2.6c-1-0.7-2.6-1.5-4.7-2.4c-2.2-0.9-3.8-1.7-5-2.4c-1.2-0.7-2.2-1.6-3-2.6c-0.9-1-1.5-2-1.9-3.1
		c-0.4-1-0.6-2.1-0.6-3.2c0-2.8,1.1-5.1,3.3-7.1c2.2-2,4.9-2.9,8.1-2.9c2.1,0,4.2,0.5,6.4,1.4C1458.4,566.7,1460.2,568.1,1461.6,570
		z"/>
	<path class="st2" d="M1470.4,565.7h9.4c7.4,0,13,2,16.6,5.9c3.6,3.9,5.4,8.4,5.4,13.5c0,5.1-1.9,9.6-5.6,13.5
		c-3.7,3.9-9.2,5.9-16.3,5.9h-9.4V565.7z M1475.7,570.8v28.3h0.3c3.9,0,6.9-0.2,8.9-0.5c2-0.4,3.9-1.1,5.7-2.3
		c1.8-1.2,3.2-2.8,4.3-4.8c1.1-2,1.6-4.1,1.6-6.5c0-3-0.8-5.7-2.5-8.1c-1.7-2.4-3.7-4-6-4.9c-2.3-0.8-5.5-1.2-9.4-1.2H1475.7z"/>
</g>
<g>
	<path class="st2" d="M1430.5,384.4l28.6,29.4V386h5.3v40.5l-28.6-29.3v27.5h-5.3V384.4z"/>
	<path class="st2" d="M1473.7,386h9.4c7.4,0,13,2,16.6,5.9c3.6,3.9,5.4,8.4,5.4,13.5c0,5.1-1.9,9.6-5.6,13.5
		c-3.7,3.9-9.2,5.9-16.3,5.9h-9.4V386z M1478.9,391.2v28.3h0.3c3.9,0,6.9-0.2,8.9-0.5c2-0.4,3.9-1.1,5.7-2.3
		c1.8-1.2,3.2-2.8,4.3-4.8c1.1-2,1.6-4.1,1.6-6.5c0-3-0.8-5.7-2.5-8.1c-1.7-2.4-3.7-4-6-4.9c-2.3-0.8-5.5-1.2-9.4-1.2H1478.9z"/>
</g>
<g>
	<path class="st2" d="M1692.8,427.2l10.6,40.3h-5.2l-6.4-24.6l-11,26.1l-11.1-26.3l-6.5,24.8h-5.2l10.6-40.3l12.1,28.8L1692.8,427.2
		z"/>
	<path class="st2" d="M1709.8,427.2l28.6,29.4v-27.9h5.3v40.5l-28.6-29.3v27.5h-5.3V427.2z"/>
</g>
<g>
	<path class="st2" d="M1795.5,927.9l10.6,40.3h-5.2l-6.4-24.6l-11,26.1l-11.1-26.3l-6.5,24.8h-5.2l10.6-40.3l12.1,28.8L1795.5,927.9
		z"/>
	<path class="st2" d="M1811.1,948.7c0-5.6,2.1-10.4,6.3-14.4c4.2-4,9.3-6,15.2-6c5.8,0,10.7,2,14.9,6c4.2,4,6.3,8.8,6.3,14.3
		c0,5.9-2.1,10.8-6.2,14.8s-9.2,6.1-15.2,6.1c-5.9,0-10.9-2-15.1-6.1C1813.2,959.4,1811.1,954.5,1811.1,948.7z M1848.2,948.9
		c0-4.3-1.5-7.9-4.6-10.8c-3.1-2.9-6.9-4.4-11.4-4.4c-4.3,0-7.9,1.5-11,4.5s-4.6,6.5-4.6,10.7c0,4.2,1.6,7.8,4.7,10.7
		c3.1,2.9,7,4.4,11.5,4.4c4.2,0,7.8-1.5,10.8-4.5C1846.7,956.6,1848.2,953,1848.2,948.9z"/>
</g>
<g>
	<path class="st2" d="M2063.2,806.7h5.2v38.7h-5.2V806.7z"/>
	<path class="st2" d="M2077.9,805.1l28.6,29.4v-27.9h5.3v40.5l-28.6-29.3v27.5h-5.3V805.1z"/>
</g>
<g>
	<path class="st2" d="M2196.3,795.4c0-5.6,2.1-10.4,6.3-14.4c4.2-4,9.3-6,15.2-6c5.8,0,10.7,2,14.9,6s6.3,8.8,6.3,14.3
		c0,5.9-2.1,10.8-6.2,14.8c-4.1,4-9.2,6.1-15.2,6.1c-5.9,0-10.9-2-15.1-6.1C2198.4,806.1,2196.3,801.2,2196.3,795.4z M2233.4,795.6
		c0-4.3-1.5-7.9-4.6-10.8c-3.1-2.9-6.9-4.4-11.4-4.4c-4.3,0-7.9,1.5-11,4.5c-3.1,3-4.6,6.5-4.6,10.7c0,4.2,1.6,7.8,4.7,10.7
		c3.1,2.9,7,4.4,11.5,4.4c4.2,0,7.8-1.5,10.8-4.5C2231.9,803.3,2233.4,799.8,2233.4,795.6z"/>
	<path class="st2" d="M2247.3,776.3h5.3v14.9h18.5v-14.9h5.2V815h-5.2v-18.6h-18.5V815h-5.3V776.3z"/>
</g>
<g>
	<path class="st2" d="M2420.1,704.3h7.8c4.4,0,7.9,1,10.6,3.1c2.7,2.1,4,4.8,4,8.1c0,3.3-1.4,6.1-4.3,8.4c-2.8,2.2-7.2,3.3-13,3.3
		V743h-5.2V704.3z M2425.3,708.9v13.6c4,0,6.9-0.6,8.8-1.7c1.9-1.1,2.9-2.8,2.9-5.2c0-1.8-0.7-3.4-2.2-4.7
		C2433.4,709.6,2430.2,708.9,2425.3,708.9z"/>
	<path class="st2" d="M2460.7,702.8l18.3,40.2h-5.5l-4.5-9.9h-16.4l-4.4,9.9h-5.5L2460.7,702.8z M2460.7,714.9l-6.2,13.8h12.5
		L2460.7,714.9z"/>
</g>
<g>
	<path class="st2" d="M1934.1,815.8h5.2v38.7h-5.2V815.8z"/>
	<path class="st2" d="M1949.8,815.8h5.2v33.5h12.6v5.2h-17.8V815.8z"/>
</g>
<g>
	<path class="st2" d="M1799.8,1379.9h5.2v33.5h12.6v5.2h-17.8V1379.9z"/>
	<path class="st2" d="M1838.7,1378.4l18.3,40.2h-5.5l-4.5-9.9h-16.4l-4.4,9.9h-5.5L1838.7,1378.4z M1838.7,1390.5l-6.2,13.8h12.5
		L1838.7,1390.5z"/>
</g>
<g>
	<path class="st2" d="M1955.6,1236.2l10.6,40.3h-5.2l-6.4-24.6l-11,26.1l-11.1-26.3l-6.5,24.8h-5.2l10.6-40.3l12.1,28.8
		L1955.6,1236.2z"/>
	<path class="st2" d="M1996.5,1242.1l-4.3,3.4c-1.1-1.2-2.2-2.1-3.1-2.6c-0.9-0.6-2.2-0.9-4-0.9c-1.9,0-3.4,0.4-4.6,1.3
		c-1.2,0.9-1.8,2-1.8,3.3c0,1.2,0.5,2.2,1.5,3.1c1,0.9,2.8,1.9,5.3,2.9c2.5,1.1,4.4,2.1,5.8,3c1.4,0.9,2.5,1.9,3.4,3.1
		c0.9,1.1,1.6,2.3,2,3.5c0.4,1.2,0.7,2.5,0.7,3.9c0,3.2-1.2,6-3.5,8.2c-2.3,2.3-5.2,3.4-8.5,3.4c-3.2,0-6.1-0.9-8.6-2.7
		c-2.5-1.8-4.4-4.4-5.7-8l5.3-1.5c1.9,4.4,4.9,6.5,8.8,6.5c1.9,0,3.5-0.6,4.8-1.7c1.3-1.2,1.9-2.6,1.9-4.4c0-1.1-0.3-2.1-1-3.2
		c-0.7-1.1-1.5-1.9-2.5-2.6c-1-0.7-2.6-1.5-4.7-2.4c-2.2-0.9-3.8-1.7-5-2.4c-1.2-0.7-2.2-1.6-3-2.6c-0.9-1-1.5-2-1.9-3.1
		c-0.4-1-0.6-2.1-0.6-3.2c0-2.8,1.1-5.1,3.3-7.1c2.2-2,4.9-2.9,8.1-2.9c2.1,0,4.2,0.5,6.4,1.4
		C1993.3,1238.9,1995.1,1240.3,1996.5,1242.1z"/>
</g>
<path class="st2" d="M2091.2,1231l18.3,40.2h-5.5l-4.5-9.9H2083l-4.4,9.9h-5.5L2091.2,1231z M2091.1,1243.1l-6.2,13.8h12.5
	L2091.1,1243.1z"/>
<path class="st2" d="M2116.3,1232.5h5.2v33.5h12.6v5.2h-17.8V1232.5z"/>
<g>
	<path class="st2" d="M2076.6,1064.3h23.7v5.3h-9.2v33.4h-5.2v-33.4h-9.2V1064.3z"/>
	<path class="st2" d="M2107.2,1062.8l28.6,29.4v-27.9h5.3v40.5l-28.6-29.3v27.5h-5.3V1062.8z"/>
</g>
<g>
	<path class="st2" d="M2157.2,943.8h5.3v15.7l16.4-15.7h7.4l-18.7,18l18.8,20.7h-6.7l-17.2-18.9v18.9h-5.3V943.8z"/>
	<path class="st2" d="M2190.5,943.8h5.8l9.5,15.6l9.4-15.6h5.9l-12.7,21v17.7h-5.3v-17.7L2190.5,943.8z"/>
</g>
<g>
	<path class="st2" d="M2281.3,1247.2l-3.9,3.9c-3.9-3.9-8.5-5.8-13.7-5.8c-4.5,0-8.3,1.5-11.3,4.4c-3,2.9-4.5,6.6-4.5,10.9
		c0,3.8,1.5,7.3,4.4,10.3c2.9,3.1,7,4.6,12.1,4.6c7.7,0,12.6-3.4,14.6-10.1h-10.5v-5.3h16.5c0,2.6-0.2,4.8-0.5,6.3
		c-0.4,1.6-1.1,3.3-2.2,5.2c-1.1,1.9-2.6,3.6-4.4,5.1c-1.9,1.5-3.8,2.6-6,3.2c-2.1,0.6-4.6,1-7.6,1c-6.7,0-12-2.1-16-6.3
		c-4-4.2-6-9-6-14.4c0-5.7,2-10.5,6.1-14.5c4.1-4,9-6,14.8-6c3.4,0,6.6,0.5,9.4,1.6C2275.4,1242.4,2278.4,1244.4,2281.3,1247.2z"/>
	<path class="st2" d="M2307.6,1239.6l18.3,40.2h-5.5l-4.5-9.9h-16.4l-4.4,9.9h-5.5L2307.6,1239.6z M2307.6,1251.6l-6.2,13.8h12.5
		L2307.6,1251.6z"/>
</g>
<g>
	<path class="st2" d="M2384.7,1150.2l-4.3,3.4c-1.1-1.2-2.2-2.1-3.1-2.6c-0.9-0.6-2.2-0.9-4-0.9c-1.9,0-3.4,0.4-4.6,1.3
		c-1.2,0.9-1.8,2-1.8,3.3c0,1.2,0.5,2.2,1.5,3.1c1,0.9,2.8,1.9,5.3,2.9c2.5,1.1,4.4,2.1,5.8,3c1.4,0.9,2.5,1.9,3.4,3.1
		c0.9,1.1,1.6,2.3,2,3.5c0.4,1.2,0.7,2.5,0.7,3.9c0,3.2-1.2,6-3.5,8.2c-2.3,2.3-5.2,3.4-8.5,3.4c-3.2,0-6.1-0.9-8.6-2.7
		c-2.5-1.8-4.4-4.4-5.7-8l5.3-1.5c1.9,4.4,4.9,6.5,8.8,6.5c1.9,0,3.5-0.6,4.8-1.7c1.3-1.2,1.9-2.6,1.9-4.4c0-1.1-0.3-2.1-1-3.2
		c-0.7-1.1-1.5-1.9-2.5-2.6c-1-0.7-2.6-1.5-4.7-2.4c-2.2-0.9-3.8-1.7-5-2.4c-1.2-0.7-2.2-1.6-3-2.6c-0.9-1-1.5-2-1.9-3.1
		c-0.4-1-0.6-2.1-0.6-3.2c0-2.8,1.1-5.1,3.3-7.1c2.2-2,4.9-2.9,8.1-2.9c2.1,0,4.2,0.5,6.4,1.4
		C2381.4,1147,2383.2,1148.4,2384.7,1150.2z"/>
	<path class="st2" d="M2424.7,1147.2v6c-4.2-2-8-3.1-11.5-3.1c-4.5,0-8.3,1.5-11.4,4.4c-3.1,2.9-4.6,6.5-4.6,10.7
		c0,4.3,1.6,7.9,4.7,10.8c3.1,2.9,7.1,4.3,11.8,4.3c3.4,0,7.1-1.1,10.9-3.2v6c-3.5,1.9-7.3,2.8-11.4,2.8c-6,0-11.1-2-15.4-6.1
		c-4.3-4.1-6.4-8.9-6.4-14.7c0-5.6,2.1-10.4,6.3-14.4c4.2-4,9.2-6,15.1-6C2416.7,1144.7,2420.6,1145.5,2424.7,1147.2z"/>
</g>
<g>
	<path class="st2" d="M2443.7,1024.7l28.6,29.4v-27.9h5.3v40.5l-28.6-29.3v27.5h-5.3V1024.7z"/>
	<path class="st2" d="M2518.1,1027.6v6c-4.2-2-8-3.1-11.5-3.1c-4.5,0-8.3,1.5-11.4,4.4c-3.1,2.9-4.6,6.5-4.6,10.7
		c0,4.3,1.6,7.9,4.7,10.8c3.1,2.9,7.1,4.3,11.8,4.3c3.4,0,7.1-1.1,10.9-3.2v6c-3.5,1.9-7.3,2.8-11.4,2.8c-6,0-11.1-2-15.4-6.1
		c-4.3-4.1-6.4-8.9-6.4-14.7c0-5.6,2.1-10.4,6.3-14.4c4.2-4,9.2-6,15.1-6C2510.1,1025,2514,1025.9,2518.1,1027.6z"/>
</g>
<g>
	<path class="st2" d="M2434.7,901.5h5.6l12.2,27.4l12.2-27.4h5.6l-17.9,40L2434.7,901.5z"/>
	<path class="st2" d="M2486.9,900l18.3,40.2h-5.5l-4.5-9.9h-16.4l-4.4,9.9h-5.5L2486.9,900z M2486.9,912.1l-6.2,13.8h12.5
		L2486.9,912.1z"/>
</g>
<g>
	<path class="st2" d="M2314.1,891.1l12.5,28.6l11.7-27h5.5l-17.1,39.9l-12.5-28.6l-12.5,28.6l-17.2-39.9h5.5l11.8,27.3L2314.1,891.1
		z"/>
	<path class="st2" d="M2347.4,892.6h5.6l12.2,27.4l12.2-27.4h5.6l-17.9,40L2347.4,892.6z"/>
</g>
<path class="st2" d="M2364.2,1456.7h21.4v5.3h-16.2v9.7h16.2v5.2h-16.2v18.5h-5.3V1456.7z"/>
<g>
	<path class="st3" d="M2517.9,335.8h5.6l12.2,27.4l12.2-27.4h5.6l-17.9,40L2517.9,335.8z"/>
	<path class="st3" d="M2557.6,335.7h23.7v5.3h-9.2v33.4h-5.2V341h-9.2V335.7z"/>
</g>
<g>
	<path class="st3" d="M2843.8,444.4l28.6,29.4v-27.9h5.3v40.5l-28.6-29.3v27.5h-5.3V444.4z"/>
	<path class="st3" d="M2887.1,445.9h5.3v14.9h18.5v-14.9h5.2v38.7h-5.2v-18.6h-18.5v18.6h-5.3V445.9z"/>
</g>
<g>
	<path class="st3" d="M2872.8,523.7l10.6,40.3h-5.2l-6.4-24.6l-11,26.1l-11.1-26.3l-6.5,24.8h-5.2l10.6-40.3l12.1,28.8L2872.8,523.7
		z"/>
	<path class="st3" d="M2904.5,523.8l18.3,40.2h-5.5l-4.5-9.9h-16.4l-4.4,9.9h-5.5L2904.5,523.8z M2904.5,535.9l-6.2,13.8h12.5
		L2904.5,535.9z"/>
</g>
<g>
	<path class="st3" d="M2804.7,668.1v6c-4.2-2-8-3.1-11.5-3.1c-4.5,0-8.3,1.5-11.4,4.4c-3.1,2.9-4.6,6.5-4.6,10.7
		c0,4.3,1.6,7.9,4.7,10.8c3.1,2.9,7.1,4.3,11.8,4.3c3.4,0,7.1-1.1,10.9-3.2v6c-3.5,1.9-7.3,2.8-11.4,2.8c-6,0-11.1-2-15.4-6.1
		c-4.3-4.1-6.4-8.9-6.4-14.7c0-5.6,2.1-10.4,6.3-14.4c4.2-4,9.2-6,15.1-6C2796.8,665.6,2800.7,666.4,2804.7,668.1z"/>
	<path class="st3" d="M2809.9,666.8h23.7v5.3h-9.2v33.4h-5.2v-33.4h-9.2V666.8z"/>
</g>
<g>
	<path class="st3" d="M2835.8,607.5h8.4c4.2,0,7.6,1,10.2,3.1c2.6,2.1,3.9,4.7,3.9,8c0,2.6-0.8,4.9-2.5,6.9c-1.7,2-4.3,3.4-7.9,4.2
		l11.2,16.6h-6.1l-10.7-15.9h-1.2v15.9h-5.3V607.5z M2841.1,612.2v13.5c7.8,0.2,11.7-2.1,11.7-6.8c0-1.6-0.5-3-1.4-4
		c-0.9-1-2.1-1.8-3.6-2.1S2844,612.2,2841.1,612.2z"/>
	<path class="st3" d="M2867.2,607.5h5.2v38.7h-5.2V607.5z"/>
</g>
<g>
	<path class="st3" d="M2824.5,629.2c0,0-0.1,0-0.1,0l-108.4-7.1c-1-0.1-1.7-0.9-1.7-1.9c0.1-1,0.9-1.7,1.9-1.7l108.4,7.1
		c1,0.1,1.7,0.9,1.7,1.9C2826.2,628.5,2825.4,629.2,2824.5,629.2z"/>
</g>
<g>
	<path class="st3" d="M2746.6,734.5l28.6,29.4v-27.9h5.3v40.5l-28.6-29.3v27.5h-5.3V734.5z"/>
	<path class="st3" d="M2798.7,736.1h5.3v28.4c0,7.7-3.2,11.6-9.6,11.6c-2.2,0-4.4-0.6-6.6-1.7l2.6-4.3c1.7,0.6,3.1,0.9,4.2,0.9
		c2.8,0,4.2-1.9,4.2-5.6V736.1z"/>
</g>
<g>
	<path class="st3" d="M2731,755.3C2731,755.3,2731,755.3,2731,755.3l-117.8-6c-1,0-1.7-0.9-1.7-1.9c0.1-1,0.9-1.7,1.9-1.7l117.7,6
		c1,0,1.7,0.9,1.7,1.9C2732.8,754.6,2732,755.3,2731,755.3z"/>
</g>
<g>
	<path class="st3" d="M2728,807.2h9.4c7.4,0,13,2,16.6,5.9c3.6,3.9,5.4,8.4,5.4,13.5c0,5.1-1.9,9.6-5.6,13.5
		c-3.7,3.9-9.2,5.9-16.3,5.9h-9.4V807.2z M2733.3,812.4v28.3h0.3c3.9,0,6.9-0.2,8.9-0.5c2-0.4,3.9-1.1,5.7-2.3
		c1.8-1.2,3.2-2.8,4.3-4.8c1.1-2,1.6-4.1,1.6-6.5c0-3-0.8-5.7-2.5-8.1c-1.7-2.4-3.7-4-6-4.9c-2.3-0.8-5.5-1.2-9.4-1.2H2733.3z"/>
	<path class="st3" d="M2766.4,807.2h21.4v5.3h-16.2v9.7h16.2v5.2h-16.2v13.3h16.2v5.2h-21.4V807.2z"/>
</g>
<g>
	<path class="st3" d="M2584.6,831.1c-1,0-1.8-0.8-1.8-1.8c0-1,0.8-1.8,1.8-1.8l131-1.4c0.9,0,1.8,0.8,1.8,1.8c0,1-0.8,1.8-1.8,1.8
		L2584.6,831.1C2584.6,831.1,2584.6,831.1,2584.6,831.1z"/>
</g>
<g>
	<path class="st3" d="M2738.1,879.8l10.6,40.3h-5.2l-6.4-24.6l-11,26.1l-11.1-26.3l-6.5,24.8h-5.2l10.6-40.3l12.1,28.8L2738.1,879.8
		z"/>
	<path class="st3" d="M2755.4,881.4h9.4c7.4,0,13,2,16.6,5.9c3.6,3.9,5.4,8.4,5.4,13.5c0,5.1-1.9,9.6-5.6,13.5
		c-3.7,3.9-9.2,5.9-16.3,5.9h-9.4V881.4z M2760.7,886.5v28.3h0.3c3.9,0,6.9-0.2,8.9-0.5c2-0.4,3.9-1.1,5.7-2.3
		c1.8-1.2,3.2-2.8,4.3-4.8c1.1-2,1.6-4.1,1.6-6.5c0-3-0.8-5.7-2.5-8.1c-1.7-2.4-3.7-4-6-4.9c-2.3-0.8-5.5-1.2-9.4-1.2H2760.7z"/>
</g>
<g>
	<path class="st3" d="M2698.5,900.4c-0.2,0-0.4,0-0.6-0.1L2584,860.9c-0.9-0.3-1.4-1.3-1.1-2.3c0.3-0.9,1.3-1.4,2.3-1.1l113.8,39.3
		c0.9,0.3,1.4,1.3,1.1,2.3C2699.9,899.9,2699.2,900.4,2698.5,900.4z"/>
</g>
<g>
	<path class="st3" d="M2699.8,961.4h5.6l12.2,27.4l12.2-27.4h5.6l-17.9,40L2699.8,961.4z"/>
	<path class="st3" d="M2751.9,959.8l18.3,40.2h-5.5l-4.5-9.9h-16.4l-4.4,9.9h-5.5L2751.9,959.8z M2751.9,971.9l-6.2,13.8h12.5
		L2751.9,971.9z"/>
</g>
<g>
	<path class="st3" d="M2691.3,977.2c-0.3,0-0.6-0.1-0.9-0.3L2583.2,910c-0.8-0.5-1.1-1.6-0.6-2.4c0.5-0.8,1.6-1.1,2.4-0.6
		l107.2,66.9c0.8,0.5,1.1,1.6,0.6,2.4C2692.5,976.9,2691.9,977.2,2691.3,977.2z"/>
</g>
<g>
	<path class="st3" d="M2761.8,680.6c-0.3,0-0.5-0.1-0.8-0.2l-97.5-46.6c-0.9-0.4-1.3-1.5-0.8-2.4c0.4-0.9,1.5-1.3,2.4-0.8l97.5,46.6
		c0.9,0.4,1.3,1.5,0.8,2.4C2763.1,680.2,2762.5,680.6,2761.8,680.6z"/>
</g>
<g>
	<path class="st3" d="M2695.6,580.7c-0.8,0-1.6-0.6-1.7-1.5c-0.2-1,0.5-1.9,1.4-2.1l128.9-23c1-0.2,1.9,0.5,2.1,1.4
		c0.2,1-0.5,1.9-1.4,2.1l-128.9,23C2695.8,580.7,2695.7,580.7,2695.6,580.7z"/>
</g>
<g>
	<path class="st3" d="M2706.1,537.2c-0.6,0-1.2-0.3-1.6-0.9c-0.5-0.9-0.1-1.9,0.7-2.4l124.9-67.9c0.9-0.5,1.9-0.2,2.4,0.7
		c0.5,0.9,0.1,1.9-0.7,2.4L2706.9,537C2706.6,537.1,2706.3,537.2,2706.1,537.2z"/>
</g>
<g>
	<path class="st3" d="M2630.6,460.7c-0.5,0-1-0.2-1.3-0.6l-60.4-69.7c-0.6-0.7-0.6-1.9,0.2-2.5c0.7-0.6,1.9-0.6,2.5,0.2l60.4,69.7
		c0.6,0.7,0.6,1.9-0.2,2.5C2631.4,460.5,2631,460.7,2630.6,460.7z"/>
</g>
<path class="st2" d="M1832.5,1144h8.4c4.2,0,7.6,1,10.2,3.1c2.6,2.1,3.9,4.7,3.9,8c0,2.6-0.8,4.9-2.5,6.9c-1.7,2-4.3,3.4-7.9,4.2
	l11.2,16.6h-6.1l-10.7-15.9h-1.2v15.9h-5.3V1144z M1837.8,1148.7v13.5c7.8,0.2,11.7-2.1,11.7-6.8c0-1.6-0.5-3-1.4-4
	c-0.9-1-2.1-1.8-3.6-2.1C1842.9,1148.9,1840.7,1148.7,1837.8,1148.7z"/>
<path class="st2" d="M1809.9,1141.9l18.3,40.2h-5.5l-4.5-9.9h-16.4l-4.4,9.9h-5.5L1809.9,1141.9z M1809.9,1154l-6.2,13.8h12.5
	L1809.9,1154z"/>
<path class="st2" d="M2394.6,1456.7h5.2v33.5h12.6v5.2h-17.8V1456.7z"/>
</svg>
